<?xml version="1.0" encoding="UTF-8"?>
<svg id="_レイヤー_4" data-name="レイヤー 4" xmlns="http://www.w3.org/2000/svg" viewBox="0 0 1190.55 841.89">
  <defs>
    <style>
      .cls-1 {
        fill: #b55;
      }

      .cls-1, .cls-2 {
        stroke-width: 0px;
      }

      .cls-2 {
        fill: #087;
      }
    </style>
  </defs>
  <path class="cls-2" d="m50.98,410.28c18.71-20.16,39.22-46.65,56.37-68.08,8.6-10.74,16.99-21.67,25.7-32.32,1.79-2.19,1.96-3.71.7-6.1-6.13-11.65-11.18-23.81-14.91-36.4-3.54-11.96-7.4-23.88-9.53-36.23-.36-2.07-.51-4.08,1.51-5.36,1.98-1.25,3.5.17,4.92,1.27,13.84,10.74,28.3,20.81,40.42,33.56,7.57,7.97,15.48,15.87,19.22,26.75.77,2.25,1.61,4.38,5.89,3.74,32.32-4.86,61.06,3.28,85.47,25.37,19.13,17.31,31.03,39.13,39.24,63.25,4.45,13.07,8.05,26.39,11.8,39.66.32,1.12.56,2.26.78,3.41,1.67,8.56-.96,12.5-9.72,12.95-13.14.68-26.3.85-39.46.98-3.4.04-5.32.45-4.73,4.53.59,4.06-1.7,9.53.98,11.91,2.26,1.99,7.58.72,11.53.55,9.5-.41,18.98-.37,28.48.07,3.04.14,6,.56,8.62,2.18,2.58,1.59,4.11,3.8,3.66,7.07-.45,3.28-2.48,5.01-5.48,5.69-6.2,1.4-12.54,1.7-18.85,1.93-8.16.3-16.33.35-24.49.21-3.16-.05-4.56.65-4.27,4.09.36,4.12-1.24,9.46.81,12.09,2.2,2.82,7.77.82,11.85.84,14.16.07,28.35.39,42.48-.29,23.38-1.12,46.18,10.23,52.95,41.28,2.96,13.55,3.09,26.81-1.6,39.98-4.18,11.75-20.47,18.83-31.97,13.83-8.57-3.73-11.69-10.4-8.63-20.12,3.85-12.23,4.94-24.41,1.23-36.82-1.2-4.01-2.85-7.81-5.55-11.07-2.26-2.72-4.96-4.18-8.66-4.03-33.48,1.4-66.97-.31-100.45.3-10.99.2-21.99.52-32.98.48-12.07-.04-14.87-2.8-17.6-14.84-2.59-11.44-2.37-22.81-.13-34.17,1.68-8.52,2.42-9.14,11.2-9.54,10.65-.48,21.32-.31,31.98.19,5.99.28,11.99.23,17.98.51,2.31.11,3.21-.42,3.17-2.94-.27-19.29-.25-38.52-5.74-57.39-2.14-7.36-3.96-14.46-9.36-20.17-1.62-1.71-3.46-2.79-5.65-2.13-2.14.65-1.07,2.85-1.22,4.33-1.94,18.59-8.43,34.74-25.42,44.53-15.23,8.78-31.57,9.93-48.38,5.15-2.88-.82-5.79-1.6-8.57-2.68-3.67-1.44-5.1.06-5.61,3.55-3.23,22.24-19.91,36.46-42.17,34.89-6.87-.48-13.31-2.72-19.51-5.7-1.3-.62-3.92-6.26-5.8-5.08-6.33-1.56-16.17-4.5-18.83-9.11-3.82-6.6-3.05-12.3,0-18.83,3.83-8.22,14.33-8.06,16.33-11.72Zm163.08,60.4c0,.15,0,.31,0,.46-4.16,0-8.32-.16-12.47.04-4.41.22-10.54-.8-12.73,1.62-2.27,2.51-.57,8.49-.91,12.93-.25,3.25.81,4.14,4.1,4.16,9.26.06,18.52-.24,27.81.28,10.91.62,10.94.17,11.07-10.73.01-1.16-.16-2.37.07-3.49.95-4.69-1.39-5.63-5.46-5.33-3.81.27-7.65.06-11.47.06Zm-66.96-87.87c8.75-.07,15.97-7.11,15.74-15.33-.26-9.25-7.43-16.44-16.37-16.42-9.86.02-15.8,8.84-15.51,16.29.35,8.91,7.11,15.53,16.14,15.46Z"/>
  <path class="cls-2" d="m843.74,422.51c0-6.43-.16-12.62.06-18.79.12-3.29-.92-4.37-4.25-4.21-4.4.22-8.82.21-13.22-.84-4.51-1.09-7.84-4.47-7.98-8.87-.19-6.05,1.25-7.79,6.89-9.47,4.43-1.33,8.89-.58,13.33-.75,3.76-.14,6.14-1.04,5.74-5.69-.33-3.95.15-7.99.54-11.96.39-4,2.22-7.19,6.68-7.33,4.65-.15,5.64,3.15,5.77,7.06.14,3.99.79,7.99.67,11.96-.12,3.75.76,5.5,4.94,4.98,3.45-.43,6.99-.23,10.49-.17,5.69.1,9.01,2.7,9.65,7.38.84,6.14-1.72,10.17-7.52,11.66-4.39,1.13-8.92,1.16-13.41,1.21-3.09.04-4.53.89-4.1,4.32.48,3.79.45,7.64.69,11.47q.45,6.99,7.73,7c2.33,0,4.63-.06,6.93.65,5.61,1.73,8.53,5.19,8.44,10.24-.09,4.82-3.51,8.82-8.81,10.12-3.75.92-7.6.99-11.43.85-2.22-.08-2.86.67-2.76,2.87.3,6.49.53,12.99.5,19.48-.02,3.97,1.63,5.04,5.43,4.75,7.14-.55,14.3-.75,21.46-.91,8.44-.18,12.94,3.92,13.02,11.58.1,9.6-5.08,16.33-12.93,16.37-20.49.1-40.99,0-61.48.07-5.23.02-9.09-2.09-11.12-6.89-2.22-5.24-3.19-10.79.51-15.69,3.62-4.8,9.33-3.54,14.37-3.72,3.98-.14,7.98.07,11.96.26,2.03.1,3.1-.43,3.01-2.69-.33-8.07-.64-16.14-.82-24.21-.06-2.44-1.65-2.04-3.08-2.06-3.83-.03-7.66-.03-11.5,0-6.03.04-10.79-3.43-11.83-9.33-.76-4.34,2.31-6.98,5.72-8.65,3.2-1.57,6.67-2.48,10.45-2.12,3.63.34,7.31.07,11.21.07Z"/>
  <path class="cls-1" d="m409.4,323.92c-.6-3.39-2.27-6.44,2.46-7.22,2.26-.33,2.44,1.04,3.06,4.5l1.81,10.83c1.33,6.16,7.52,4.47,15.27,3.41,2.48-.34,4.93-.74,7.47-.44,6.19.72,9.74,3.37,10.26,7.88.5,4.31-2.66,8.37-8.15,10.3-3.89,1.37-7.98,2-12.08,2.43-2.38.25-7.69.94-7.31,2.89,1.11,5.74,2.48,12.88,3.25,18.67.47,3.54,6.75,2.94,10.77,2.12,7.54-1.53,15.16-2.77,22.77-3.96,8.97-1.4,14.28,1.59,15.3,8.41,1.28,8.54-3.41,15.29-11.78,16.48-21.84,3.1-43.7,6.02-65.55,9.08-5.57.78-9.95-.53-12.7-4.5-3.01-4.34-4.72-9.14-1.37-14.05,3.28-4.81,9.51-4.52,14.87-5.42,4.23-.71,8.52-1.11,12.79-1.52,2.18-.21,7.44-.98,7.07-2.97-1.34-7.14-2.9-14.42-4.08-21.58-.36-2.16-5.95-1.3-7.48-1.1-4.09.53-8.18,1.1-12.26,1.68-6.43.92-11.93-1.48-13.76-6.58-1.35-3.75,1.61-6.56,5.04-8.54,3.22-1.86,28.95-4.63,26.34-11.02l-2-9.78Z"/>
  <path class="cls-1" d="m819.76,276.79c.22,10.72-3.72,20.93-7.87,31.07-6.52,15.92-16.11,28.91-30.96,36.81-1.4.74-2.85,1.46-4.35,1.89-3.39.97-6.37.07-8.37-3.16-1.95-3.15-1.9-6.32.31-9.41,8.61-12.01,15.35-25.1,19.89-39.5,1.89-6,2.67-12.25,3.97-18.37,1.27-5.98,4.4-10.15,9.97-12.18,8.57-3.13,16.74,2.53,17.42,12.86Z"/>
  <path class="cls-2" d="m856.78,329.72c6.46.09,12.92.08,19.35.98,5.52.77,8.13,2.64,8.3,6.29.18,3.94-3.27,8.41-7.71,9.17-5.18.89-10.44,1.42-15.68,1.77-10.15.68-20.25,1.7-30.36,2.8-4.79.52-9.53.93-12.79-4.1-3.77-5.8-.24-14.15,7.38-14.7,10.5-.76,20.93-2.45,31.51-2.21Z"/>
  <path class="cls-1" d="m687.92,494.17c-1.98.02-2.7-1.06-2.17-2.84,1.84-6.14,3.76-12.25,5.68-18.37.39-1.25,1.5-1.01,2.46-1.02,5.55.93,10.55-1.22,15.41-3.23,6.44-2.66,12.61-5.98,18.96-8.87,2.68-1.22,3.25-2.77,2.07-5.46-1.86-4.26-3.47-8.64-5.17-12.97-1.38-3.55-2.35-7.17.93-10.19,3.14-2.88,7-2.84,10.81-1.72,3.49,1.03,6.02,3.54,8.11,6.38,9.32,12.67,13.65,26.88,12.81,42.61-.1,1.81-.45,3.65-.94,5.4-2.33,8.3-10.71,10.7-17.18,4.97-3.12-2.76-4.87-6.38-5.79-10.29-.95-4.06-2.64-4.07-5.8-2.07-10.54,6.63-21.5,12.42-33.56,15.86-2.2.63-4.42,1.22-6.63,1.83Z"/>
  <path class="cls-2" d="m173.93,527.86c12.6-.08,23.06,10.24,23.03,22.74-.02,11.82-10.5,22.05-22.63,22.11-11.92.05-22.59-10.27-22.8-22.03-.22-12.17,10.16-22.74,22.4-22.81Z"/>
  <path class="cls-2" d="m274.92,549.8c0-12.24,10-22.1,22.29-21.98,11.56.11,21.85,10.65,21.73,22.26-.12,11.65-9.93,21.16-21.96,21.3-12.1.13-22.06-9.61-22.06-21.58Z"/>
  <path class="cls-1" d="m255.96,548.11c-.12,12.07-9.28,21.75-20.88,21.49-10.64-.24-21.99-8.75-21.3-22.19.6-11.63,9.79-20.8,21.73-20.66,11.37.13,20.56,9.73,20.45,21.36Z"/>
  <path class="cls-1" d="m122.96,557.81c-.12,12.07-9.28,21.75-20.88,21.49-10.64-.24-21.99-8.75-21.3-22.19.6-11.63,9.79-20.8,21.73-20.66,11.37.13,20.56,9.73,20.45,21.36Z"/>
  <path class="cls-2" d="m419.51,570.81c0-5.49-.08-10.99.02-16.47.1-5.12,2.8-8.26,7.84-8.53,5.3-.28,10.65-.42,15.91.77,9.34,2.12,12.63,10.67,6.78,18.2-1.71,2.2-2.37,3.19-.07,5.78,7.97,8.99,3.07,22.32-8.74,24.55-5.11.97-10.31.72-15.42.26-3.94-.35-6.21-2.95-6.23-7.1-.03-5.82,0-11.65,0-17.47h-.08Zm14.67,2.01c-1.99,0-4.88-.84-5.79.15-3.1,3.36-.1,7.68-.8,11.58-.19,1.07-.85,2.69,1.17,3.24,4.57,1.24,9.26,1.75,13.52-.48,5.2-2.73,5.54-7.76,1.61-11.87-2.82-2.95-6.22-2.72-9.71-2.63Zm-.54-19.95c-.83-.04-1.69-.23-2.47-.07-1.26.25-3.59-1.14-3.55,1.22.05,2.99-1.47,6.42.89,8.94,1.5,1.6,12.6.65,14.49-.74,3.32-2.45,2.86-6.56-1.05-8.19-2.62-1.08-5.46-1.3-8.3-1.15Z"/>
  <path class="cls-2" d="m514,564.73c0-4.48,0-8.97,0-13.45,0-2.79.16-5.63,3.91-5.7,3.73-.07,4.07,2.58,4.02,5.49-.06,3.65.28,7.34-.05,10.96-.32,3.52.76,3.7,3.78,2.79,10.48-3.16,24,4.39,19.21,20.64-1.97,6.68-8.5,10.56-16.48,10.13-6.95-.38-12.39-4.9-13.91-11.48-1.5-6.46.35-12.92-.47-19.37Zm16.01,7.3c-4.29,0-7.4,2.91-7.48,7-.09,4.77,3.42,8.73,7.71,8.68,4.6-.05,7.96-3.41,7.84-7.85-.12-4.36-3.69-7.82-8.08-7.83Z"/>
  <path class="cls-2" d="m715.12,504.66c9.15-.1,16.12,6.32,16.36,15.06.22,8.07-8.08,16.12-17.1,16.61-6.01.33-15.01-8.79-15.23-15.43-.27-8.15,7.6-16.15,15.97-16.25Z"/>
  <path class="cls-2" d="m752.32,564.14c-.64,8.31.44,14.5-1.29,20.57-2.03,7.14-7.66,11.81-14.76,12.09-6.66.26-12.94-3.99-15.37-10.4-1.74-4.6.28-14.29,4.13-17.45,4.74-3.88,10.34-4.01,15.49-1.23,4.36,2.36,4.54.67,4.36-2.99-.21-4.15-.04-8.32-.05-12.49,0-2.56,1.17-4.21,3.79-4.23,2.75-.02,3.68,1.87,3.7,4.33.02,4.66,0,9.32,0,11.8Zm-17.44,25.94c4.81.14,9-4.3,9.03-9.58.02-3.7-4.39-7.04-9.65-7.32-3.86-.2-7.27,3.57-7.37,8.14-.11,4.85,3.33,8.62,8,8.76Z"/>
  <path class="cls-2" d="m865.27,297.42c.12,8.17-6.04,14.5-14.34,14.74-8.43.25-15.24-6.06-15.38-14.25-.13-7.97,6.31-14.36,14.62-14.49,8.25-.13,14.98,6.11,15.1,14Z"/>
  <path class="cls-1" d="m957.75,495.75c.12,8.17-6.04,14.5-14.34,14.74-8.43.25-15.24-6.06-15.38-14.25-.13-7.97,6.31-14.36,14.62-14.49,8.25-.13,14.98,6.11,15.1,14Z"/>
  <path class="cls-1" d="m1128.54,495.75c.12,8.17-6.04,14.5-14.34,14.74-8.43.25-15.24-6.06-15.38-14.25-.13-7.97,6.31-14.36,14.62-14.49,8.25-.13,14.98,6.11,15.1,14Z"/>
  <path class="cls-2" d="m637.48,581.87c1.81-6.1-1.57-11.52-6.19-16.71-3.2-3.59-5.86-7.66-8.83-11.47-1.69-2.18-2.79-4.48-.14-6.48,2.58-1.95,4.55-.52,6.25,1.78,3.76,5.08,7.74,10,11.45,15.12,1.59,2.19,2.53,1.93,3.94-.08,3.55-5.03,7.21-9.98,10.87-14.92,1.7-2.3,3.87-4.24,6.66-1.95,2.57,2.11,1.07,4.43-.55,6.54-1.52,1.98-2.7,4.25-4.39,6.05-8.11,8.61-12.7,18.37-10.82,30.53.42,2.71-.51,5.06-3.66,5.54-2.78.42-4.55-.69-4.59-3.74-.03-3,0-5.99,0-10.21Z"/>
  <path class="cls-2" d="m556.8,580.38c.3-10.15,5.38-15.69,14.61-15.92,9.35-.22,15.47,5.52,16.32,15.09.43,4.82.59,9.97,7.4,10.47,1.07.08,1.93,1.2,1.75,2.63-.22,1.73-1.33,2.7-2.85,3.09-3.47.88-6.32-.67-8.45-3.11-1.6-1.83-2.37-1.62-4.29-.37-5.77,3.74-12.05,3.57-18.06.66-5.09-2.46-6.56-7.18-6.43-12.53Zm23.9-.18c-.02-5.49-3.71-9.33-8.86-9.2-5.19.13-8.19,3.75-8.12,9.8.06,4.84,2.99,7.43,8.49,7.51,5.3.07,8.51-2.99,8.49-8.11Z"/>
  <path class="cls-2" d="m463.47,579.99c.06-9,4.56-14.48,12.82-15.63,7.5-1.04,14.41,3.89,16.6,11.95.47,1.75.57,3.6.95,5.38.78,3.68,2.36,6.64,6.72,6.78,2.05.06,3.82.69,3.77,3.02-.06,2.47-1.92,3.25-4.15,3.36-2.39.12-5.03.12-6.53-1.77-2.62-3.29-4.77-1.76-7.5-.29-11.45,6.17-22.76-.28-22.68-12.8Zm6.91.28c-.09,5.32,2.61,8.21,7.68,8.24,5.25.03,9.17-3.28,9.2-7.75.04-5.16-4.03-9.64-8.79-9.67-5.14-.03-8,3.21-8.1,9.18Z"/>
  <path class="cls-2" d="m777.11,595.06c-5.93.38-10.01-2.36-12.71-6.99-2.93-5.01-1.4-10.2.94-14.87,3.25-6.47,9.1-8.25,15.89-7.17,6.62,1.05,10.55,5.26,12.44,11.49.53,1.74.72,3.59,1.08,5.38.77,3.76,2.3,6.63,6.89,6.18,2.01-.2,3.83.35,3.94,2.73.1,2.18-1.51,3.14-3.42,3.69-3.29.94-6.19-.26-8.12-2.57-2.57-3.07-4.66-2.66-7.5-.59-2.82,2.05-6.14,2.97-9.45,2.72Zm1.18-5.63c5.26-.08,9.61-3.87,9.39-8.19-.22-4.48-4.71-8.91-9.09-8.95-5.08-.06-8.59,3.82-8.58,9.48,0,4.98,2.98,7.74,8.28,7.66Z"/>
  <path class="cls-2" d="m296.87,301.68c7.72,0,13.22,5.49,13.2,13.18-.03,7.38-5.87,13.08-13.41,13.08-7.5,0-13.78-6.28-13.63-13.63.15-7.32,5.97-12.62,13.84-12.63Z"/>
  <path class="cls-2" d="m671.27,574.28c0-2.17-.02-4.33,0-6.5.03-2.3,1.04-3.95,3.45-4.1,2.78-.17,3.81,1.72,3.85,4.16.07,3.83-.07,7.67-.02,11.5.07,4.98,2.94,8.09,7.45,8.21,4.92.13,8.61-3.29,8.71-8.22.08-3.66-.1-7.33.01-10.99.08-2.56,1.12-4.76,4.11-4.58,2.67.16,3.58,2.23,3.49,4.63-.2,5.16-.17,10.36-.89,15.45-.97,6.78-7.32,11.12-15.12,10.97-8.01-.16-13.79-4.7-14.85-12.05-.4-2.77-.06-5.65-.06-8.47-.05,0-.09,0-.14,0Z"/>
  <path class="cls-2" d="m261.86,267.62c7.21.08,12.43,5.43,12.4,12.72-.03,7.45-5.54,12.74-13.08,12.56-6.86-.16-12.42-6.08-12.25-13.06.17-7.14,5.63-12.3,12.94-12.22Z"/>
  <path class="cls-1" d="m204.82,252.72c7.3.11,12.29,5.38,12.15,12.84-.14,7-5.73,12.34-12.88,12.28-7.17-.06-13.21-5.82-12.96-12.39.28-7.54,5.99-12.85,13.7-12.73Z"/>
  <path class="cls-2" d="m833.35,550.16c-.08,4.06-3.33,7.13-7.45,7.04-4.2-.09-7.32-3.41-7.21-7.67.1-4.02,3.42-7.2,7.44-7.13,3.98.07,7.3,3.64,7.23,7.77Z"/>
  <path class="cls-1" d="m649.25,515.24c-.06-6.74,3.02-10.01,9.47-10.06,6.3-.05,10.55,3.99,10.57,10.05.02,5.13-5.11,10.02-10.48,9.98-5.48-.04-9.52-4.25-9.56-9.97Z"/>
  <path class="cls-1" d="m886.88,305.04c-.05-6.49,2.91-9.64,9.12-9.68,6.07-.04,10.16,3.85,10.18,9.68.02,4.94-4.92,9.64-10.09,9.61-5.28-.04-9.16-4.09-9.21-9.6Z"/>
  <path class="cls-1" d="m994.77,283.46c-.05-6.49,2.91-9.64,9.12-9.68,6.07-.04,10.16,3.85,10.18,9.68.02,4.94-4.92,9.64-10.09,9.61-5.28-.04-9.16-4.09-9.21-9.6Z"/>
  <path class="cls-1" d="m918.38,404.85c-.05-6.49,2.91-9.64,9.12-9.68,6.07-.04,10.16,3.85,10.18,9.68.02,4.94-4.92,9.64-10.09,9.61-5.28-.04-9.16-4.09-9.21-9.6Z"/>
  <path class="cls-1" d="m1134.79,537.49c-8.7.07-13.08-3.87-13.21-11.88-.12-7.24,4.89-12.53,12.02-12.68,6.63-.14,13.18,5.71,13.4,11.98.24,6.98-5.15,12.54-12.21,12.59Z"/>
  <path class="cls-1" d="m928.53,542.37c-8.7.07-13.08-3.87-13.21-11.88-.12-7.24,4.89-12.53,12.02-12.68,6.63-.14,13.18,5.71,13.4,11.98.24,6.98-5.15,12.54-12.21,12.59Z"/>
  <path class="cls-1" d="m1134.79,385.81c-8.7.07-13.08-3.87-13.21-11.88-.12-7.24,4.89-12.53,12.02-12.68,6.63-.14,13.18,5.71,13.4,11.98.24,6.98-5.15,12.54-12.21,12.59Z"/>
  <path class="cls-2" d="m829.83,578.94c0,3.83,0,7.67,0,11.5,0,2.56-1.13,4.16-3.84,4.2-2.82.03-3.74-1.76-3.75-4.24-.03-7.5-.04-15-.05-22.5,0-2.37,1.13-3.85,3.54-3.96,2.68-.12,4,1.48,4.07,4,.1,3.66.03,7.33.03,11Z"/>
  <path class="cls-2" d="m289.74,255.84c3.86-.05,7.23,2.7,7.15,5.83-.07,2.67-4.99,7.67-7.6,6.97-2.8-.74-5.92-1.94-5.87-6,.07-4.65,1.89-6.74,6.31-6.8Z"/>
  <path class="cls-1" d="m230.82,246.58c.02-4.34,1.8-6.55,5.6-6.76,3.65-.2,6.61,2.91,6.49,6.6-.1,2.98-3.79,6.56-6.68,6.07-3.47-.59-5.66-2.62-5.41-5.91Z"/>
  <path class="cls-1" d="m332.62,292.66c-.29,3.31-2.19,5.52-5.6,5.72-3.47.21-5.91-1.9-6.03-5.3-.12-3.31,1.77-5.51,5.54-5.66,3.69-.15,5.57,1.55,6.1,5.24Z"/>
  <path class="cls-1" d="m374.32,365.97c-.48,5.8-3.57,9.66-9.11,10.01-5.64.36-9.6-3.33-9.8-9.27-.19-5.79,2.88-9.64,9-9.91,6-.26,9.06,2.72,9.91,9.17Z"/>
  <path class="cls-1" d="m344.52,379.31c-.3,3.65-2.24,6.08-5.73,6.3-3.55.23-6.04-2.09-6.16-5.83-.12-3.64,1.81-6.06,5.66-6.23,3.77-.16,5.7,1.71,6.23,5.77Z"/>
  <path class="cls-1" d="m375.56,416.43c-.48,5.8-3.57,9.66-9.11,10.01-5.64.36-9.6-3.33-9.8-9.27-.19-5.79,2.88-9.64,9-9.91,6-.26,9.06,2.72,9.91,9.17Z"/>
  <path class="cls-1" d="m347.52,426.86c-.32,3.82-2.35,6.36-6,6.59-3.71.24-6.33-2.19-6.45-6.11-.12-3.81,1.9-6.35,5.93-6.53,3.95-.17,5.97,1.79,6.53,6.04Z"/>
  <path class="cls-2" d="m712.3,328.77c.48-5.8,3.57-9.66,9.11-10.01,5.64-.36,9.6,3.33,9.8,9.27.19,5.79-2.88,9.64-9,9.91-6,.26-9.06-2.72-9.91-9.17Z"/>
  <path class="cls-1" d="m737.2,312.44c.3-3.65,2.24-6.08,5.73-6.3,3.55-.23,6.04,2.09,6.16,5.83.12,3.64-1.81,6.06-5.66,6.23-3.77.16-5.7-1.71-6.23-5.77Z"/>
  <path class="cls-1" d="m737.2,367.82c.3-3.65,2.24-6.08,5.73-6.3,3.55-.23,6.04,2.09,6.16,5.83.12,3.64-1.81,6.06-5.66,6.23-3.77.16-5.7-1.71-6.23-5.77Z"/>
  <path class="cls-1" d="m708.89,275.13c.48-5.8,3.57-9.66,9.11-10.01,5.64-.36,9.6,3.33,9.8,9.27.19,5.79-2.88,9.64-9,9.91-6,.26-9.06-2.72-9.91-9.17Z"/>
  <path class="cls-1" d="m733.92,265.22c.32-3.82,2.35-6.36,6-6.59,3.71-.24,6.33,2.19,6.45,6.11.12,3.81-1.9,6.35-5.93,6.53-3.95.17-5.97-1.79-6.53-6.04Z"/>
  <path class="cls-1" d="m751.7,351.31c.32-3.82,2.35-6.36,6-6.59,3.71-.24,6.33,2.19,6.45,6.11.12,3.81-1.9,6.35-5.93,6.53-3.95.17-5.97-1.79-6.53-6.04Z"/>
  <path class="cls-1" d="m545.52,420.99c2-5.46,6.01-8.36,11.45-7.23,5.53,1.15,8.37,5.76,6.98,11.54-1.36,5.63-5.34,8.53-11.31,7.16-5.85-1.34-8.01-5.03-7.12-11.47Z"/>
  <path class="cls-1" d="m574.68,417.72c1.32-3.6,3.96-5.51,7.54-4.76,3.64.76,5.52,3.79,4.6,7.6-.89,3.71-3.52,5.62-7.45,4.72-3.85-.88-5.28-3.31-4.69-7.55Z"/>
  <path class="cls-1" d="m147.1,382.82c-9.03.08-15.79-6.54-16.14-15.46-.29-7.45,5.65-16.28,15.51-16.29,8.94-.02,16.11,7.17,16.37,16.42.23,8.22-6.99,15.26-15.74,15.33Z"/>
  <g>
    <path class="cls-2" d="m552.6,305c-1.75-1.44-3.61-2.74-5.57-3.89-.56-.33-1.24-.32-1.82-.02-6.08,3.2-13,5.03-20.35,5.03s-14.27-1.82-20.35-5.03c-.57-.3-1.26-.31-1.82.02-1.96,1.15-3.82,2.46-5.57,3.89-.99.81-.86,2.38.25,3.03,8.06,4.75,17.45,7.48,27.49,7.48s19.43-2.73,27.49-7.48c1.1-.65,1.24-2.22.25-3.03Z"/>
    <path class="cls-2" d="m547.03,376.47c2.57-1.52,4.97-3.28,7.17-5.28.91-.82.77-2.3-.26-2.96-8.41-5.35-18.38-8.46-29.08-8.46s-20.67,3.11-29.08,8.46c-1.03.66-1.17,2.13-.26,2.96,2.2,1.99,4.6,3.76,7.17,5.28.56.33,1.25.32,1.82.02,6.08-3.2,13-5.02,20.35-5.02s14.27,1.82,20.35,5.02c.57.3,1.26.31,1.82-.02Z"/>
    <path class="cls-2" d="m547.03,300.07c2.57-1.52,4.97-3.28,7.17-5.28.91-.82.77-2.3-.26-2.96-8.41-5.35-18.38-8.46-29.08-8.46s-20.67,3.11-29.08,8.46c-1.03.66-1.17,2.13-.26,2.96,2.2,1.99,4.6,3.76,7.17,5.28.56.33,1.25.32,1.82.02,6.08-3.2,13-5.02,20.35-5.02s14.27,1.82,20.35,5.02c.57.3,1.26.31,1.82-.02Z"/>
    <path class="cls-2" d="m492.14,370.77c.87-.66.98-1.91.25-2.72-6.99-7.75-11.24-18.01-11.24-29.26,0-11.89,4.75-22.66,12.45-30.54.8-.82.69-2.16-.24-2.83-2.01-1.43-3.91-3-5.7-4.68-.76-.71-1.95-.66-2.65.1-8.94,9.67-14.4,22.6-14.4,36.81s5.46,27.14,14.4,36.81c.7.76,1.89.82,2.64.11,1.43-1.34,2.93-2.61,4.49-3.79Z"/>
    <path class="cls-2" d="m524.86,382.51c-7.35,0-14.27-1.82-20.35-5.03-.57-.3-1.26-.31-1.82.02-1.96,1.15-3.82,2.46-5.57,3.89-.99.81-.86,2.38.25,3.03,8.06,4.75,17.45,7.48,27.49,7.48s19.43-2.73,27.49-7.48c1.1-.65,1.24-2.22.25-3.03-1.75-1.44-3.61-2.74-5.57-3.89-.56-.33-1.24-.32-1.82-.02-6.08,3.2-13,5.03-20.35,5.03Z"/>
    <path class="cls-2" d="m556.38,305.42c-.94.67-1.05,2.01-.24,2.83,7.7,7.88,12.45,18.66,12.45,30.54,0,11.25-4.26,21.51-11.24,29.26-.73.81-.62,2.07.25,2.72,1.57,1.18,3.07,2.45,4.49,3.79.75.71,1.94.65,2.64-.11,8.94-9.67,14.4-22.6,14.4-36.81s-5.46-27.14-14.4-36.81c-.7-.76-1.89-.81-2.65-.1-1.79,1.69-3.7,3.25-5.7,4.68Z"/>
  </g>
  <g>
    <path class="cls-2" d="m457.98,406.5c8.15,0,13.96,5.34,13.93,12.82-.03,7.18-6.2,12.73-14.15,12.73-7.92,0-14.55-6.11-14.39-13.26.16-7.12,6.3-12.28,14.61-12.29Z"/>
    <path class="cls-1" d="m493.61,507.68c-.15,14.49-12.09,26.12-27.21,25.81-13.86-.29-28.65-10.51-27.75-26.65.78-13.96,12.76-24.97,28.31-24.81,14.81.15,26.79,11.69,26.64,25.66Z"/>
    <path class="cls-1" d="m592.28,506.15c-.15,13.79-11.51,24.86-25.9,24.56-13.2-.27-27.27-10.01-26.41-25.37.74-13.29,12.14-23.77,26.95-23.62,14.1.15,25.5,11.13,25.36,24.42Z"/>
    <path class="cls-1" d="m556.53,447.05c-3.02-2.19-25.03-.2-27.84,1.19-2.81,1.39-4.1,1.19,1.29,3.18s7.98.2,11.65,2.2c3.67,2-1.51,12.91-7.77,18.59-6.26,5.68-49.79-2.46-53.51-4.4-3.72-1.93,1.51-7.45-4.53-12.02-6.04-4.57-18.13-.6-20.93,0-2.81.6-1.08,2.98,0,4.84,1.08,1.86,11.22-1.86,15.1-1.08,3.88.77.65,2.81-.43,3.8-1.08.99-10.14-1.19-14.03,0-3.88,1.19.22,3.98,2.09,4.57,1.88.6,13.23-1.39,14.27.8,1.04,2.19,0,13.29,0,13.29,0,0,5.52,7.35,8.67,7.6,3.15.25,0-11.73,2.81-12.93,2.81-1.19,31.5,31.82,34.52,35.52,3.02,3.7,6.47,3.86,9.71,5.05,3.24,1.19,16.4-1.59,18.56-4.23,2.16-2.64,6.69-23.02,7.55-25.21.86-2.19-12.95-11.93-13.79-14.12-.85-2.19,5.59-16.51,6.03-18.7s6.04-1.79,9.28-4.18c3.24-2.39,4.32-1.59,1.29-3.78Zm-29.73,62.45c-1.03,2.19-36.94-31.19-35.44-33.61.86-1.39,37.55.6,39.92,3.58,2.37,2.98-3.45,27.84-4.48,30.03Zm22.88-16.68c-.27,1.16-.92,14.57-5.23,14.93-4.32.36-10.36,5.44-11.44,3.9-1.08-1.55,3.45-29.35,4.75-33.15.64-1.88,12.2,13.16,11.93,14.33Z"/>
    <path class="cls-2" d="m529.99,451.43c-.22-4.18,3.88-6.56,5.01-12.68,1.13-6.11-3.72-13.18-11.92-19.54-8.2-6.36-22.66-7.16-38.23-5.77-15.57,1.39-11.83,19.69-11.83,19.69,0,0,4.53,9.75,6.47,12.73s-2.37,12.73-4.1,16.11-7.77,2.59-10.14,5.37c-2.37,2.78-2.16,3.58,5.39,8.15,7.55,4.57,10.36-.4,12.08-3.27,1.73-2.88,9.93-19.4,10.88-22.38.95-2.98-3.54-10.34-1.17-12.93,2.37-2.59,11.87-.2,14.03,1.84s-2.16,6.51-4.96,10.4c-2.81,3.89-9.93,13.01-9.71,17.39.22,4.38,23.74,20.29,25.89,22.28,2.16,1.99,5.83,12.53,6.04,16.79.22,4.26-3.24,16.62-4.53,18.21-1.29,1.59-4.32,4.38-2.81,5.97,1.51,1.59,15.07,1.79,15.07,1.79,0,0,3.06-21.08,3.54-29.04.48-7.96-7.17-21.28-7.17-24.26s2.37-22.67,2.16-26.85Zm-23.09,14.59c-1.51-2.06-5.39-5.38-5.39-5.38.22-2.65,6.69-7.62,9.28-7.03,2.59.6,4.31,24.26,4.31,24.86s-6.69-10.39-8.2-12.46Z"/>
    <g>
      <path class="cls-1" d="m491.6,470.63v5.03c2.61-.46,12.62-.16,21.9.63v-2.57c-7.4-.65-15.49-1.89-21.9-3.1Z"/>
      <path class="cls-1" d="m491.6,477.55v.79h.57c-.22-.28-.41-.55-.57-.79Z"/>
    </g>
  </g>
  <path class="cls-2" d="m466.46,493.48c8.39,0,14.37,5.97,14.35,14.33-.03,8.02-6.38,14.22-14.57,14.22-8.15,0-14.98-6.83-14.82-14.82.16-7.95,6.49-13.72,15.05-13.73Z"/>
  <path class="cls-2" d="m566.46,491.95c8.39,0,14.37,5.97,14.35,14.33-.03,8.02-6.38,14.22-14.57,14.22-8.15,0-14.98-6.83-14.82-14.82.16-7.95,6.49-13.72,15.05-13.73Z"/>
  <g>
    <path class="cls-2" d="m788.15,360.02s-1.67,5.17-1.67,7.83-2.33,27-3.67,32c-1.33,5-7.83,22.33-7.83,27.67s-.33,59.67,0,64.33c.33,4.67-.33,10.83,16.33,11,16.67.17,19.83,0,20-8,.17-8,.83-64.5,0-69.5-.83-5-6.5-22-7.5-25.33s-4.33-28.5-4.33-33.83,1.17-7.33-3.17-7.5-5.83-.67-8.17,1.33Z"/>
    <path class="cls-1" d="m786.2,356.23s-.15,2.54-.15,2.68.79.54.81.83-.51.44-.72.9-.33,4.25-.08,4.39.74.33,1.06.36,3.47-.56,5.94-.47,6.07.75,6.67.47.83-.2.85-.47.22-4.08,0-4.39-.76-.29-.83-.62.69-.7.8-.96.19-2.56-.04-2.85-2.68-1.3-6.86-1.3-7.31.65-7.43,1.43Z"/>
  </g>
  <g>
    <path class="cls-2" d="m721.71,378.89s-3.06,3.46-3.96,5.54c-.91,2.08-11,20.25-13.74,23.69s-13.7,14.74-15.51,18.89c-1.81,4.16-20.55,46.38-21.88,50.13-1.33,3.75-3.94,8.33,8.99,14.13,12.93,5.8,15.45,6.75,18.31.57,2.85-6.18,22.59-49.98,23.64-54.15,1.05-4.18,2.42-19.35,2.77-22.29s6.32-23.68,8.13-27.84c1.81-4.16,3.4-5.32.08-6.92-3.32-1.6-4.32-2.5-6.82-1.74Z"/>
    <path class="cls-1" d="m721.47,375.26s-.98,1.93-1.03,2.04.43.69.34.92-.55.17-.87.46-1.71,3.2-1.56,3.39.46.51.7.64,2.89.75,4.79,1.65,4.47,2.65,5.03,2.64.72.13.82-.08,1.56-3.1,1.49-3.42-.5-.49-.43-.77.77-.31.95-.47,1.02-1.93.94-2.24-1.65-1.92-4.91-3.35c-3.26-1.42-5.91-1.98-6.28-1.41Z"/>
  </g>
  <rect class="cls-1" x="860.4" y="353.76" width="6.53" height="24.03" transform="translate(-73.77 335.44) rotate(-21.1)"/>
  <rect class="cls-1" x="881.52" y="445.39" width="6.53" height="24.03" transform="translate(-105.34 349.18) rotate(-21.1)"/>
  <rect class="cls-1" x="862.29" y="445.76" width="6.53" height="24.03"/>
  <rect class="cls-1" x="832.51" y="355.53" width="6.53" height="24.03"/>
  <rect class="cls-1" x="822.86" y="356.15" width="6.53" height="24.03"/>
  <rect class="cls-1" x="870.41" y="445.76" width="6.53" height="24.03"/>
  <rect class="cls-1" x="861.31" y="399.55" width="5.9" height="21.68"/>
  <rect class="cls-2" x="868.87" y="399.55" width="5.9" height="21.68" transform="translate(-32.33 77.23) rotate(-4.98)"/>
  <g>
    <rect class="cls-1" x="644.04" y="280.95" width="2.87" height="114.18"/>
    <rect class="cls-1" x="661.41" y="279.84" width="2.87" height="114.18"/>
    <rect class="cls-1" x="678.79" y="274.71" width="2.87" height="114.18"/>
    <path class="cls-2" d="m685.52,264.29c-27.95-12.32-45.43-4.14-61.29,31.31-15.85,35.45-10.98,68.8-8.54,81.03,2.44,12.24,2.4,37.64-2.66,52.21-5.06,14.57-14,34.4-13.19,38.94.41,2.27,6.69,18.22,14.13,10.51,7.44-7.71,16.05-39.07,19.27-43.31,6.44-8.48,22.9-26.34,35-33.77,12.09-7.43,30.83-19.82,38.94-47.99,8.11-28.17,6.29-76.62-21.66-88.94Zm-60.26,159.15l2.76-29.75c2.47-1.89,10.94,7.35,13.79,10.62,2.85,3.27-16.55,19.14-16.55,19.14Zm66.6-68.76c-10.99,22.69-33.73,39.09-51.64,29.92-18.29-9.36-15.69-58.61-7.66-73.31,11.24-20.56,29.47-38.39,47.09-29.78,15.31,7.48,23.2,50.47,12.21,73.17Z"/>
    <path class="cls-1" d="m613.03,428.84l18.01,10.72s-9.95,36.91-14.43,39.54c-4.49,2.63-19.54,3.71-19.9-9.59-.36-13.3,16.32-40.67,16.32-40.67Z"/>
    <polygon class="cls-2" points="704.35 341.02 622.63 348.17 621.34 329.92 703.07 322.77 704.35 341.02"/>
  </g>
  <g>
    <path class="cls-1" d="m994.75,338.68s2.05,3.91,1.72,5.59-3.2,5.05-6.22,4.63-18.34-1.09-21.2,0c-2.86,1.09-7.74,2.1-8.41,4.96-.67,2.86-2.69,6.06-4.54,6.9s-2.86,4.71-1.68,7.91-1.01,6.06,1.85,8.41,5,8.4,7.63,8.91,5.93-2.01,9.24-1.34,6.01,3.03,11.73,2.52,19.18-1.21,23.38.07c4.21,1.28,14.64,9.52,16.82,10.02s4.88-3.36,7.91-1.35c3.03,2.02,8.41,6.22,7.57,10.6s-1.01,6.39-3.87,8.58-6.9,1.51-8.24,3.7-.34,4.37-4.21,4.37-1.85-4.54-6.9-1.51c-5.05,3.03-3.7,5.89-7.4,6.06s-3.03-1.51-7.57,2.19c-4.54,3.7-8.66,5.38-5.09,7.07,3.57,1.68,63.12,1.01,69.18,1.01s1.85-4.04,0-5.38-3.06-2.19-7.08-3.03-9.57-.67-9.57-2.02-4.04.5-5.38-1.68,2.36-4.71,7.07-4.71,10.77-.34,13.63-4.21,6.73-9.59,5.89-11.61c-.84-2.02-2.02-6.56-5.21-8.07s-10.09-1.85-10.09-6.22-.67-5.06,5.89-5.05,8.41-5.71,12.28-6.39,5.89.84,9.76-1.35,9.08-9.08,12.95-9.08,7.91-2.69,5.05-3.2-6.9-2.86-9.59-1.68c-2.69,1.18-2.86,4.37-4.04,4.54s-7.57,2.36-7.57,1.01,1.95-2.91.5-3.53-8.58.84-9.76,2.36c-1.18,1.51-2.69,4.88-6.9,6.56-4.21,1.68-9.08-1.18-12.78,0s-3.7,3.7-8.92,3.7-15.81-.67-16.82,1.01c-1.01,1.68-7.23-1.68-10.77-2.02s-13.12-1.85-17.33-1.85-10.43-.17-12.28-3.2-6.06-3.53-3.2-7.07c2.86-3.53-2.69-5.38,2.19-6.06s7.57.5,10.77-1.35,6.9-.34,11.1-2.86c4.21-2.52,7.23-1.18,11.61-4.88,4.37-3.7,6.73-3.36,7.57-7.91.84-4.54,9.25-4.88,4.21-5.38-5.05-.5-17.33.15-14.97,2.6,2.36,2.45.97,3.79-2.29,3.79s-1.58,4.37-5.79,3.2-4.71.5-3.36-3.03c1.35-3.53,2.19-3.08,0-3.96s-7.64-3.85-8.44-1.29Z"/>
    <path class="cls-2" d="m938.06,397.62c-12.75,1.93-24.22,5.72-28.26-3.03-4.04-8.75-3.7-16.49,3.03-23.21,6.73-6.73,6.06-9.76,12.11-10.77,6.06-1.01,3.36,3.7,9.42,5.05s9.42-4.04,12.78-3.7c3.36.34,9.76,10.43,12.45,13.79s10.77,6.06,9.08,11.78-5.72,15.91-13.79,12.5c-8.07-3.42-11.95-3.14-16.82-2.41Z"/>
    <path class="cls-2" d="m1020,338.29c-5.9,1.41-17.58,3.03-28.3,1.35s-10.39.34-14.42-4.37c-4.04-4.71-5.72-10.09-4.71-18.17,1.01-8.07,3.7-11.44,8.41-11.78,4.71-.34,3.81-.49,9.08-2.69,4.33-1.81,5.38,2.36,9.42,0,4.04-2.36,4.84-5.72,12.01-6.73,7.17-1.01,11.54-2.69,16.59,0s1.98,3.37,7.07,7.07c4,2.9,10.45-1.68,13.47,2.36,3.02,4.04-.17,4.36,2.01,9.08,2.14,4.67,8.75,3.03,7.74,9.08-1.01,6.06,3.36,15.16-3.36,17s-15.48-.18-19.51-1.52c-4.04-1.35-9.92-2.01-15.48-.67Z"/>
    <path class="cls-2" d="m1064.26,348.14c5.9-1.03,1.35-9.42,9.76-10.77s7.4-6.39,12.78-5.38c5.38,1.01,5.72,4.91,10.77,8.01s1.01,4.78,6.73,5.45,6.73-4.37,12.45-1.01c5.72,3.36,10.43,10.43,6.73,15.48-3.7,5.05-3.36,9.08-6.39,9.42s-11.47-2.64-22.56-4.51c-11.09-1.88-21.85,7.59-28.58,4.54-6.73-3.05-8.8-4.74-7.6-13.48,1.2-8.75-1.82-6.39,5.91-7.74Z"/>
    <path class="cls-2" d="m936.9,435.28s165.21-1.35,169.69,0,7.96,1.79,6.9,4.49-5.55,3.59-6.9,5.38-.9,30.06-.9,30.06c0,0,3.59,2.24,0,2.69-.88.11-13.36-7.11-27.64-6.78-13.23.3-30.67-.24-48.11.06-18.91.32-34.08,2.6-49.34,2.69-17.3.1-25.85,7.51-30.9,5.83-2.13-.71-1.91-20.19-1.01-25.12s-4.04-10.32-4.04-12.11-3.14-1.79-5.83-3.14-5.2-4.01-1.92-4.04Z"/>
  </g>
</svg>