<!--?xml version="1.0" encoding="utf-8"?-->
<!-- Generator: Adobe Illustrator 22.1.0, SVG Export Plug-In . SVG Version: 6.00 Build 0)  -->
<svg version="1.1" id="_x32_" xmlns="http://www.w3.org/2000/svg" xmlns:xlink="http://www.w3.org/1999/xlink" x="0px" y="0px" viewBox="0 0 800 690.255" style="enable-background:new 0 0 800 690.255;" xml:space="preserve">
<style type="text/css">
	.st0{fill:#040000;}
</style>
<g>
	<path class="st0" d="M197.965,440.943c0,0-33.78-34.164-74.066-34.028c-40.286,0.113-45.416,18.526-45.416,18.526
		S12.87,421.012,2,442.342c0,0,5.447,0.838,8.339,0.838c2.869-0.023,52.645-2.735,62.18,3.276
		c9.511,6.009,17.6,30.751,46.975,40.443c0,0,7.117,68.462,125.513,116.205C363.403,650.824,471.27,637.56,471.27,637.56
		s149.755,42.773,154.073,41.281c4.315-1.423,52.102,13.422,49.798,8.79c-2.328-4.565-152.605-39.835-256.947-106.874
		c4.791-23.339-0.993-40.58-3.885-43.426c-2.892-2.892-2.373-24.787-5.536-26.774c-3.163-1.99,9.805-18.574,6.575-26.413
		c6.529-6.576,5.241-17.195,5.648-18.461c2.598-2.078,2.711-14.12,3.142-15.432c3.321-1.309,8.089-15.726,6.213-18.776
		c2.915-2.915,8.789-19.363,6.168-24.583c2.598-4.949,6.779-19.093,4.745-23.16c2.756-3.93,5.627-11.207,4.021-15.115
		c2.304-4.068,6.96-13.693,3.593-19.634c0,0,11.432-9.785,4.292-17.466c4.655-5.266,9.13-12.971,5.627-17.036
		c3.774-2.645,9.311-7.571,5.648-12.654c-3.637-5.085,29.035-16.066,32.357-21.76c3.343-5.692,27.993-24.65,26.954-27.43
		c-1.016-2.734,46.591-36.896,48.014-41.257c1.446-4.361,11.161-10.37,8.269-11.795c-2.913-1.445,67.627-42.049,66.745-48.194
		c12.924-6.846,81.273-52.565,80.842-58.497c8.001-5.13,55.404-37.394,55.291-39.879c-0.18-2.452,18.708-9.773,14.46-14.574
		c-4.202-4.78-120.383,44.973-189.095,72.641c-68.687,27.678-184.281,77.138-204.639,87.374
		c-20.289,10.236-73.319,37.304-95.507,51.741c-22.189,14.461-26.955,21.601-26.955,21.601l-5.537,6.395
		c0,0,15.206-28.38,8.609-36.355c6.372-10.483,6.326-29.396,1.784-34.773c5.537-7.864,2.395-30.661-0.925-35.202
		c-0.18-5.333,1.83-17.286,1.807-20.178c-0.023-2.915,16.201-37.281,7.163-42.183c3.343-7.14,34.321-51.144,29.802-57.967
		c10.867-5.118,22.753-26.366,17.306-30.582c3.096-4.789,12.948-11.216,9.174-12.945c-3.797-1.74-10.483-0.576-10.483-0.576
		s8.109-4.102,3.343-5.673c-4.789-1.592-128.541,56.341-179.424,160.594c-24.493,22.887-37.1,46.34-33.123,63.626
		c-2.712,14.097-12.225,48.736,3.547,65.547c15.75,16.832,35.023,43.539,51.651,73.726c16.675,30.21,13.172,73.094,11.726,77.499"></path>
</g>
</svg>
