<!--?xml version="1.0" encoding="utf-8"?-->
<!-- Generator: Adobe Illustrator 22.1.0, SVG Export Plug-In . SVG Version: 6.00 Build 0)  -->
<svg version="1.1" id="_x30_" xmlns="http://www.w3.org/2000/svg" xmlns:xlink="http://www.w3.org/1999/xlink" x="0px" y="0px" viewBox="0 0 800 575.892" style="enable-background:new 0 0 800 575.892;" xml:space="preserve">
<style type="text/css">
	.st0{fill:#040000;}
</style>
<g>
	<path class="st0" d="M86.22,370.006c4.962-9.196,7.266-29.722,37.586-32.531c30.322-2.829,60.736,16.967,60.736,16.967
		s54.463,29.721,85.588,38.205c31.145,8.485,111.79-16.966,120.985-31.837c9.176-14.851,79.203-203.708,87.687-203.708
		c8.502,0,0.712,25.47,0.712,25.47s52.346-111.78,58.001-156.333c5.656-44.565,22.624-18.392,23.355-3.531
		c0.673,14.832,5.636,41.023,5.636,41.023s12.025-21.228,14.16-29.712c2.134-8.492,3.54-16.976,7.789-14.861
		c4.233,2.117,5.638,58.001,5.638,58.001s16.969-24.759,24.758-26.163c7.792-1.414-2.828,44.553-2.828,44.553
		s18.392-74.275,24.066-74.275c5.657,0,2.828,41.737-0.712,47.402c0,0,17.68-38.187,21.201-38.187c3.557,0,0,44.554-2.809,50.931
		c-2.829,6.349,7.078-2.145,8.503-5.675c1.404-3.54,20.488-29.712,23.335-27.597c2.827,2.136-7.08,36.792-11.312,43.871
		c-4.269,7.08-8.521,13.428-5.675,14.149c2.848,0.712,26.876-22.632,30.433-27.595c3.521-4.944,12.717-7.782,9.89,0.702
		c-2.848,8.494-14.159,32.541-16.276,34.676c-2.135,2.125,12.024-2.135,17.698-7.071c5.656-4.961,11.292,2.117,5.656,10.601
		c-5.656,8.494-10.599,15.572-10.599,15.572s12.715-4.963,16.236-6.377c3.559-1.415,2.829,5.665-2.115,11.301
		c-4.925,5.675-14.851,19.834-14.851,19.834s12.734-7.078,16.966-5.674c4.271,1.423-1.404,10.599-7.04,18.391
		c-5.675,7.79-8.522,11.33-8.522,11.33s7.792,1.406,4.271,9.196c-3.54,7.773-14.87,14.832-14.87,14.832s7.078,4.963-1.406,12.043
		c-8.483,7.078-8.483,7.078-8.483,7.078s-2.848,8.484-10.621,14.12c-7.771,5.675-3.519,9.215-6.367,12.755
		c-2.846,3.521-2.846,9.888-4.252,12.734c-1.404,2.828-2.096,9.196-4.944,11.313c-2.846,2.115-2.115,14.159-9.196,18.392
		c-7.078,4.251-0.692,21.218-6.367,23.335c-5.656,2.115-1.404,14.871-5.656,16.985c-4.251,2.117-1.422,14.851-7.792,18.392
		c-6.367,3.521-4.944,18.372-7.059,22.643c-2.137,4.232-2.81,16.255-1.406,18.372c1.406,2.115,9.871,7.078,5.638,10.619
		c-4.232,3.54,3.558,11.33,5.675,14.851c2.115,3.522-2.117,6.367-2.117,6.367s40.323,22.643,56.578,33.243
		c16.274,10.619,37.494,43.15,50.23,53.751c12.715,10.619,31.818,25.469,32.529,29.027c0.695,3.521,8.485,12.717,8.485,12.717
		s16.968,7.08,14.851,11.33c-2.115,4.233-21.218,2.117-21.218,2.117s7.098,5.636,1.404,6.367c-5.636,0.711-118.1-36.8-118.1-36.8
		s-111.058,16.986-192.432-1.406c-81.319-18.392-91.938-43.15-132.259-58.713c-40.323-15.563-82.762-41.727-116.004-47.401
		c-33.243-5.636-112.462-2.115-134.394-16.967c-12.041,4.963-73.564,4.25-77.816-2.828c-7.79-0.693-7.061-13.448,6.367-12.736
		c13.447,0.73,47.382-12.023,60.118-19.795C86.22,370.006,86.22,370.006,86.22,370.006z"></path>
</g>
</svg>
