<!--?xml version="1.0" encoding="utf-8"?-->
<!-- Generator: Adobe Illustrator 22.1.0, SVG Export Plug-In . SVG Version: 6.00 Build 0)  -->
<svg version="1.1" id="_x36_" xmlns="http://www.w3.org/2000/svg" xmlns:xlink="http://www.w3.org/1999/xlink" x="0px" y="0px" viewBox="0 0 800 392.511" style="enable-background:new 0 0 800 392.511;" xml:space="preserve">
<style type="text/css">
	.st0{fill:#040000;}
</style>
<g>
	<path class="st0" d="M491.891,3.233c-21.858,2.616-104.897-5.926-144.656,2.545c-39.758,8.454-65.146,32.994-94.745,37.228
		c-29.606,4.22-87.987-24.538-129.428-20.303C81.599,26.923,66.38,48.916,53.691,71.765C20.705,92.068,0.401,97.128,2.099,108.994
		c1.689,11.833,16.909-0.856,16.909-0.856l52.456-8.454c0,0,74.441-6.79,85.434-7.615c10.999-0.856,51.607,0.825,59.213,4.235
		c7.613,3.38,57.532,25.365,55.843,28.759c-1.697,3.379-60.911,90.508-54.995,91.35c5.925,0.856,30.455-27.918,30.455-27.918
		s-64.298,130.276-81.206,140.428c-16.925,10.168-50.759,7.615-49.07,10.168c1.69,2.523,29.608,10.977,46.531,1.666
		c-1.695,8.469-21.993,19.462-13.537,17.781c8.455-1.697,43.986-30.472,43.986-30.472s-9.312,45.699-4.228,43.161
		c5.084-2.553,32.994-40.607,35.523-38.926c2.547,1.697,5.084,45.683,7.623,41.465c2.529-4.236,4.234-13.547,7.613-13.547
		c3.378,0,25.371-22.842,25.371-34.675c5.933,14.372,10.152,32.994,11.857,30.441c1.681-2.523,5.918-10.993,11.833-13.516
		c5.925-2.553,17.766-33.85,18.606-31.295c0.85,2.521,9.312,28.742,16.926,22.824c7.614-5.932,23.682-28.757,23.682-28.757
		l8.463,11.849c0,0-4.235,36.373-10.152,43.129c-5.924,6.773-6.765,14.386-0.848,13.547c5.924-0.858,16.076-18.606,18.606-18.606
		c2.545,0,6.773,7.596,5.932,13.514c-0.848,5.931-8.462,22.856-1.697,22.856c6.765,0,25.379-22.856,27.918-32.152
		c2.537-9.294,4.235,2.539,5.076,6.773c0.848,4.219,4.235,26.204,9.303,21.145c5.076-5.076,18.614-27.918,19.464-34.692
		c0.84-6.757,10.983,0,10.983,0s16.077,25.379,18.614,24.539c2.547-0.856,11.849-14.371,13.547-21.984
		c1.69-7.615,0.842-16.926,7.615-11.009c6.757,5.934,14.378,26.22,18.606,22.842c4.218-3.378,11.841-16.908,10.991-24.523
		c-0.84-7.613,0.85-19.462,5.084-12.689c4.228,6.757,7.607,25.38,15.22,19.446c7.614-5.916,10.152-31.295,7.614-34.674
		c-2.531-3.378,1.697-7.615,6.765-1.697c5.084,5.916,8.462,15.212,13.53,6.757c5.084-8.438,0-32.978,0-32.978
		s16.076,13.53,18.615,8.44c2.545-5.061,5.084-22.826,5.084-22.826s7.613-14.372,4.227-21.985
		c2.531-5.934,5.926-14.388,5.068-16.925c4.236,0.856,4.236-12.69,4.236-12.69c7.613,2.539,10.152-12.689,10.152-12.689
		c6.773-1.682,9.303-12.691,7.613-13.547c6.773-3.379,3.378-14.372,2.539-16.909c5.068-3.395,5.924-12.691,4.235-12.691
		c-1.697,0,5.918-3.378,5.918-3.378s32.144-14.386,37.212-17.765c5.084-3.378,15.235-5.076,17.773-5.934
		c2.531-0.825,21.993-4.235,21.993-4.235s24.531-13.514,27.069-14.372c2.539-0.84,16.919-1.697,21.153-1.697
		c4.227,0,45.326,14.388,45.326,13.546c0-0.856-4.719-9.31-4.719-9.31l-20.303-10.993c0,0,28.068-8.471,25.022-13.547
		c-3.029-5.06-14.023-15.227-14.023-15.227l-11.849,5.933l-5.924-11.009c0,0-15.227-2.521-17.765-2.521
		c-2.539,0-13.532-1.683-16.069-0.858c-2.539,0.858-23.682-2.537-23.682-2.537s-20.303-18.599-71.062-42.282
		C586.636,4.922,548.574-3.524,491.891,3.233z"></path>
</g>
</svg>
