<!--?xml version="1.0" encoding="utf-8"?-->
<!-- Generator: Adobe Illustrator 22.1.0, SVG Export Plug-In . SVG Version: 6.00 Build 0)  -->
<svg version="1.1" id="_x30_" xmlns="http://www.w3.org/2000/svg" xmlns:xlink="http://www.w3.org/1999/xlink" x="0px" y="0px" viewBox="0 0 800 416.738" style="enable-background:new 0 0 800 416.738;" xml:space="preserve">
<style type="text/css">
	.st0{fill:#040000;}
</style>
<g>
	<path class="st0" d="M4.745,99.909c7.027-6.614,12.823-9.517,13.237-21.913c0.403-12.391,2.893-35.135,23.561-42.163
		c5.865-1.993-4.966-33.474,2.478-34.724c7.442-1.233,14.885,14.885,14.885,14.885s17.351,1.239,23.561,0
		C88.665,14.75,89.897,1.12,94.862,1.109c2.915,0,7.859,12.408,20.254,27.293c12.397,14.875,47.952,28.509,109.959,19.834
		c61.994-8.676,250.493-1.233,280.263,6.199c39.99,10,81.835,18.6,124.003,86.818c42.168,68.205,35.969,96.731,109.128,145.085
		c21.106,13.952,59.53,8.676,59.53,28.527c0,19.839-45.889,11.152-65.728,3.709c-19.84-7.442-62.087-35.161-88.045-80.59
		c-14.885-26.049-31.004-35.969-31.004-35.969s-2.488,34.712-2.488,43.412c0,8.675,13.652,23.56,26.049,32.236
		c12.397,8.674,9.919,27.282,21.084,49.61c11.152,22.317,24.805,50.831,21.083,65.705c-3.721,14.885-8.687,24.816-17.361,22.338
		c-8.688-2.488-4.966-13.64-4.966-13.64s-2.478,3.709-3.722-6.21c-1.233-9.919-9.919-48.366-19.839-58.285
		c-9.919-9.908-63.251-45.878-78.125-50.844c-14.885-4.965-38.447-21.083-47.121-33.48c0,0-1.556-1.071-4.114-2.834
		c-0.391,0.553-0.759,1.106-1.267,1.591c-11.579,11.164-17.363,17.777-16.532,31.418c0.829,13.64-0.83,33.065-7.431,35.957
		c-6.625,2.892-31.004,21.913-39.679,28.527c-8.686,6.601-25.646,10.749-50.439,9.919c-24.805-0.829-17.375-13.226-17.375-13.226
		c2.903-6.602,8.284-4.954,8.284-4.954c1.647-2.903,0.817-5.795,9.506-4.551c8.674,1.244,23.56-6.199,33.479-12.396
		c9.921-6.21,27.282-18.607,13.641-39.679c-9.701-15.001-9.367-46.937-8.364-64.128c-28.365,3.733-75.326,9.989-109.44,8.319
		c-7.765-0.38-15.449-0.968-22.927-1.636c-1.163,4.61-3.364,11.13-6.844,19.402c-5.369,12.823-14.459,33.491-8.675,41.752
		c5.784,8.261,10.334,8.261,15.3,11.568c4.954,3.317,22.316,16.947,21.487,24.817c2.478,7.845,1.233,9.505-1.244,11.567
		c-2.062,4.966-9.09,7.028-12.8,5.369c-6.21,0-12.005-2.893-16.545-10.75c-4.538-7.845-31.003-30.589-34.724-35.957
		c-3.721-5.369-1.244-26.856-1.658-39.265c-0.312-9.585-6.776-24.608-5.496-34.954c-14.85-2.374-24.263-4.322-24.263-4.322
		s-18.18,28.942-27.282,40.508c-9.09,11.579-45.474,59.53-52.087,68.62c-6.613,9.092-27.282,24.818-51.258,23.158
		c-10.737,1.66-11.567-7.442-11.567-7.442s-4.539-4.966,1.244-8.688c0,0,2.062-4.954,10.323-5.368
		c8.272-0.415,23.573-7.028,30.601-11.994c7.028-4.966,18.18-33.492,21.901-52.502c3.722-19.01-12.397-66.961-13.641-76.88
		c-1.232-9.919-30.577-54.98-57.041-53.321c-26.453,1.66-43.826,3.71-50.013-3.721c-11.994-4.954-14.471-11.993-14.471-11.993
		S-2.283,106.527,4.745,99.909z"></path>
</g>
</svg>
