<!--?xml version="1.0" encoding="utf-8"?-->
<!-- Generator: Adobe Illustrator 22.1.0, SVG Export Plug-In . SVG Version: 6.00 Build 0)  -->
<svg version="1.1" id="_x38_" xmlns="http://www.w3.org/2000/svg" xmlns:xlink="http://www.w3.org/1999/xlink" x="0px" y="0px" viewBox="0 0 510.2 800" style="width: 319px;" xml:space="preserve">
<style type="text/css">
	.st0{fill:#040000;}
</style>
<g>
	<path class="st0" d="M499.139,99.137c2.09-9.007,9.009-58.902,9.699-73.45c0.706-14.556-2.767-27.029-15.939-22.878
		c-13.158,4.164-50.586,59.6-50.586,59.6s-26.331-0.685-38.81,1.378c-12.466,2.088-43.654,8.322-43.654,8.322
		s-35.351-36.728-54.059-41.579c-18.72-4.842-22.179,8.323-16.631,28.414c5.549,20.097,22.167,65.147,22.167,65.147
		s9.02,36.729,8.328,42.969c-0.692,6.234-26.344,45.73-52.674,53.36c-26.33,7.624-167.71,31.879-212.76,117.118
		C9.182,422.774-3.298,537.125,39.678,607.813c0,0,11.083,33.961-2.781,39.502c-13.85,5.542-88.013,108.809,30.495,135.832
		c118.507,27.029,240.475-14.557,278.593-4.151c38.119,10.384,58.21,26.33,67.217,15.24c9.007-11.089-11.774-48.517-72.073-51.284
		c-60.298-2.774-151.757,12.466-196.821,10.398c-45.038-2.09-83.144-36.038-56.812-45.737c26.331-9.713,33.955,22.864,69.984,12.467
		c36.03-10.391,47.819-18.009,51.982-17.316c4.151,0.685,84.54-14.563,110.884-9.028c26.331,5.555,32.571-2.07,34.647-9.699
		c0,0,11.774,2.781,9.008-9.694l3.459-4.849c0,0,22.179,15.946,45.051,14.543c4.857,0,7.624-6.92,8.316-9.009
		c0.705-2.068,10.405-2.068,10.405-9.007c5.548-2.767,4.15-11.077,4.15-11.077s0.692-9.699-5.548-11.788
		c-6.226-2.076-25.638-4.857-31.186-9.7c-5.535-4.857-8.302-15.241-9.7-20.111c-1.383-4.843-5.548-110.877-2.075-126.119
		c3.473-15.24,38.12-62.374,63.066-93.554c24.947-31.186,20.796-92.177,20.796-92.177s15.247-74.156,22.165-98.41
		c6.932-24.256,11.789-49.203,11.097-67.909C503.304,116.46,499.139,99.137,499.139,99.137z"></path>
</g>
</svg>
