<!--?xml version="1.0" encoding="utf-8"?-->
<!-- Generator: Adobe Illustrator 22.1.0, SVG Export Plug-In . SVG Version: 6.00 Build 0)  -->
<svg version="1.1" id="_x37_" xmlns="http://www.w3.org/2000/svg" xmlns:xlink="http://www.w3.org/1999/xlink" x="0px" y="0px" viewBox="0 0 800 772.579" style="enable-background:new 0 0 800 772.579;" xml:space="preserve">
<style type="text/css">
	.st0{fill:#040000;}
</style>
<g>
	<path class="st0" d="M114.783,767.161c-28.409-1.892-30.301-20.833-40.392-30.931c-10.118-10.097-29.039-41.659-44.189-88.364
		c-15.15-46.699,17.672-68.156,26.516-74.47c8.83-6.32,26.503-47.973,36.594-65.639c10.118-17.68-5.032-54.287-29.039-119.921
		c-23.965-65.645,16.412-128.762,16.412-128.762C-5.144,197.225-3.883,60.894,7.484,23.026c11.353-37.862,36.594-16.412,26.503,0
		c-10.105,16.411-6.308,73.221,20.195,143.9c26.503,70.691,73.228,66.9,89.626,75.744c16.412,8.836,170.422-1.262,237.317-6.308
		c66.907-5.053,152.736,13.882,165.364,8.83c12.613-5.053,61.848-10.099,61.848-10.099c1.275-15.149,12.198-34.501,12.198-34.501
		s-15.981-53.857-2.509-59.748c16.667-7.299,50.484,35.346,50.484,35.346c39.129-7.575,71.108-0.423,74.891-1.678
		c3.798-1.276,30.3-42.928,46.713-41.666c16.412,1.268,2.523,68.161,0,71.952c0,0,11.365,29.025,2.523,68.163
		c-8.83,39.129-42.915,50.496-47.961,69.43c-5.058,18.927-21.457,59.326-34.084,75.73c-12.628,16.412-54.281,63.124-71.954,78.267
		c-17.673,15.151-41.652,92.157-45.436,111.084c-3.798,18.941-5.059,36.607-6.321,49.234c-1.262,12.614-8.83,30.294-3.784,41.653
		c5.046,11.358,20.827,14.512,28.409,14.512c7.555,0,13.875,1.269,13.875,9.475c0,0,7.581,4.414,1.262,10.727
		c0,0,4.427,12.628-31.549,11.99c-35.99-0.624-58.709-19.564-56.172-35.346c2.523-15.773-15.149-75.106-19.564-85.842
		c-4.429-10.721-24.624-85.827-23.993-130.011c0,0-128.127,17.043-197.543-10.722c0,0-6.952,25.242-25.241,42.915
		c-18.317,17.673-59.354,70.053-61.862,92.773c-2.536,22.725,37.238,76.368,49.865,83.942c12.615,7.583,34.071-3.152,34.071,9.474
		c0,0,10.736,0,6.321,9.468c0,0,6.307,10.097-6.321,15.143c-12.627,5.053-65.632,4.415-75.107-11.358
		c-9.46-15.782-78.891-95.303-76.984-108.554c1.892-13.259,8.197-20.204,8.197-20.204s-49.865,24.618-61.847,39.138
		c-12.011,14.518-6.952,28.395,5.663,52.381c12.64,23.987,11.996,29.039,22.101,38.5c10.09,9.466,15.15,11.359,20.826,10.735
		c5.677-0.637,15.15-1.268,15.15,7.569c0,0,8.199,1.892,5.676,9.473c0,0,4.429,3.778-2.523,12.621
		C149.632,775.005,114.783,767.161,114.783,767.161z"></path>
</g>
</svg>
