<!--?xml version="1.0" encoding="utf-8"?-->
<!-- Generator: Adobe Illustrator 22.1.0, SVG Export Plug-In . SVG Version: 6.00 Build 0)  -->
<svg version="1.1" id="_x32_" xmlns="http://www.w3.org/2000/svg" xmlns:xlink="http://www.w3.org/1999/xlink" x="0px" y="0px" viewBox="0 0 700.845 800" style="enable-background:new 0 0 700.845 800;" xml:space="preserve">
<style type="text/css">
	.st0{fill:#040000;}
</style>
<g>
	<path class="st0" d="M3.523,723.99c0,0-2.766-12.459,2.766-26.299c5.542-13.847,23.54-112.131,16.62-123.209
		c-6.92-11.078,6.92-23.53,20.76-41.522c13.841-18.004,20.761-94.14,20.761-112.138c0-45.691,6.927-77.524,37.387-120.439
		c30.453-42.916,88.595-53.993,113.519-48.461c24.915,5.545,76.597-11.993,107.514-17.538c30.914-5.532,65.068-43.369,73.83-50.757
		c8.769-7.381,21.235-25.839,19.847-28.601c-30.914,1.848-27.218-19.386-27.218-23.083c0-3.697,1.836-2.302,10.15-3.684
		c8.299-1.381,19.373,5.533,20.761,6c1.385,0.46,0.924-4.158-3.23-8.315c-4.154-5.065-16.152-23.997-57.216-33.681
		c-41.071-9.689-68.759-31.844-77.063-44.303c-8.315-12.459,1.371-22.148,4.15-18.919c2.77,3.23,6.46,6.92,8.295,6.46
		c1.855-0.461-1.835-6.46-5.065-13.38c-3.23-6.92,0-18.916,5.535-18.462c5.539,0.461,10.153,10.621,10.153,10.621
		s0-2.309,2.306-6.469c2.305-6.457,10.611-0.914,11.081,3.24c0.454,4.15,8.768,22.609,12.452,25.384
		c-0.457-1.848,0.461-10.623,4.615-10.163c4.154,0.461,6.46,3.243,9.686,13.854c3.243,10.598,32.309,33.213,38.769,38.292
		c6.463,5.072,15.694,2.308,10.15-3.684c-5.53-6.006-11.532-27.234-13.841-36.463c-2.312-9.229-1.388-22.609,4.615-25.836
		c5.996-3.239,10.617-1.384,8.301,6.917c-2.305,8.302,6.469,32.766,11.078,38.765c4.612,5.993,14.304,4.151,14.304-2.309
		c0-6.46,11.996-35.074,19.379-46.148c7.387-11.075,12.923-1.379,12.923,3.696c0,5.075-8.762,16.159-12.923,26.296
		c-4.148,10.15-5.833,40.064-0.457,50.304c9.686,18.459,20.3,28.609,21.685,28.148c1.388-0.454,4.615-1.375,5.997,0.921
		c1.388,2.308,28.154,3.236,30.923,3.236c2.766,0,9.222,4.618,15.692-0.007c6.46-4.617,7.842-0.454,17.071-1.841
		c9.226-1.388,57.68-22.148,59.983-29.076c2.319-6.914,4.615-12.459-3.23-21.681c-7.844-9.236-11.995-36.463-8.292-49.843
		c3.678-13.376,13.377-4.15,12.916,0.461c-0.47,4.617-3.23,11.078-1.394,20.306c1.848,9.229,9.686,23.07,18.001,24.458
		c8.305,1.382,11.998-6.92,12.465-14.314c0.457-7.381-1.848-19.84,3.69-23.07c5.529-3.223,8.759,11.078,9.226,25.385
		c0.46,14.301-14.308,24.912-15.689,31.384c-1.388,6.447,17.537-2.309,22.609-12.465c5.078-10.15,8.305-47.067,6.92-54.447
		c-1.382-7.391,3.691-9.229,8.311-7.385c4.618,1.846,6.002,7.385,10.607,5.075c4.621-2.309,5.545-15.225,12.002-12.926
		c6.46,2.309,5.535,8.306,5.078,13.387c-0.461,5.072,2.305,5.539,5.072,4.15c2.766-1.381,8.768-9.232,11.075,4.157
		c2.315,13.387-21.685,46.6-37.832,63.222c-16.156,16.604-87.22,35.529-89.531,37.365c-2.303,1.842-32.302,14.774-32.302,14.774
		s21.692-2.77,26.763-2.315c5.078,0.466,11.541,3.236,10.157,8.315c-1.388,5.072-13.841,16.149-22.155,17.537
		c-8.299,1.375-15.219-4.151-15.219-4.151c-2.772,4.151,3.223,15.689,4.609,19.834c1.394,4.157,30.459,34.614,35.992,41.534
		c5.548,6.927,4.154,48.455-35.992,30.463c-1.386,6.92-1.386,23.53-20.762,19.373c-19.385-4.157-35.992,19.386-40.146,33.227
		c-4.154,13.846,27.681,102.447,11.074,135.674c-16.619,33.226-22.299,95.733-30.46,107.981c-2.766,4.151-1.381,62.289-1.381,67.827
		c0,5.545-1.385,23.537-2.773,30.463c-1.381,6.92-6.92,69.216-2.766,78.899c4.154,9.696,1.385,22.155-1.388,27.688
		c-2.766,5.539,8.308,16.623,9.693,22.155c1.382,5.539-11.071,17.992-22.145,17.992c-11.081,0-23.54-11.071-24.921-17.992
		c-1.384-6.92,6.92-23.536,6.92-23.536s0-26.306,0-33.227c0-6.92,4.161-58.138,2.77-65.058c-1.388-6.92-2.77-47.073-1.388-52.599
		c1.388-5.545,5.539-36.009,5.539-36.009l-4.151-76.142c0,0-19.383,13.853-47.066,6.92c0,9.703-16.616,85.844-16.616,94.14
		c0,8.308,5.541,22.155,1.388,29.076c-4.161,6.926-5.533,87.213-6.927,95.521c-1.385,8.308,0,48.461,0,53.994
		c0,5.539-1.385,13.841-4.154,20.761c-2.766,6.933-23.527,13.853-35.993,8.314c-12.453-5.544-13.84-19.385-13.84-19.385
		l12.458-18.004c0,0,12.463-23.524,11.069-29.057c-1.376-5.551,6.933-94.146,5.545-101.066c-1.385-6.926-1.385-33.232-1.385-38.765
		c0-5.532,1.385-92.746,1.385-92.746s-76.884-7.291-126.244-15.784c-6.728,17.179-14.8,36.743-22.37,52.298
		c0,0-13.792,42.391-17.16,48.442c-3.37,6.044-13.936,92.707-13.936,92.707l1.983,24.879c0,0,18.635,24.01,14.644,35.727
		c-33.173,12.9-44.646,0.486-46.946-6.185c-2.305-6.677-0.866-16.649-0.866-16.649s-4.43-11.972-0.803-26.44
		c3.614-14.467,8.206-114.28-0.144-124.322c-8.356-10.048,3.69-24.253,14.982-43.951c4.986-8.698,7.106-28.481,7.704-49.383
		c-3.323-0.415-4.649-0.415-4.649-0.415s-27.694,53.986-49.84,87.213c0,0-19.383,40.14-23.533,45.686
		c-4.16,5.544-26.309,89.983-26.309,89.983l-1.385,24.924c0,0,15.225,26.299,9.693,37.371c-34.614,8.315-44.301-5.539-45.686-12.459
		C0.757,733.685,3.523,723.99,3.523,723.99z"></path>
</g>
</svg>
