<!--?xml version="1.0" encoding="utf-8"?-->
<!-- Generator: Adobe Illustrator 22.1.0, SVG Export Plug-In . SVG Version: 6.00 Build 0)  -->
<svg version="1.1" id="_x35_" xmlns="http://www.w3.org/2000/svg" xmlns:xlink="http://www.w3.org/1999/xlink" x="0px" y="0px" viewBox="0 0 648.8 800" style="width: 406px;" xml:space="preserve">
<style type="text/css">
	.st0{fill:#040000;}
</style>
<g>
	<path class="st0" d="M241.369,214.13c7.729-3.86,25.104-22.892,23.627-32.493c-1.478-9.599-16.988-29.541-17.723-34.714
		c-0.736-5.162,3.69-11.073,8.127-5.904c4.427,5.169,19.201,33.232,23.633,36.923c4.427,3.695,9.599,11.819,2.949,19.201
		c-6.647,7.392-24.369,31.018-22.156,34.716c2.213,3.695,10.344,2.217,14.774-2.955c4.433-5.169,28.795-45.789,28.795-60.557
		c0-14.774-9.595-77.546-11.808-76.811c-2.219,0.742-23.636,1.477-28.07,0.742c-4.426-0.742-14.767-5.91-16.244-14.774
		c-1.478-8.859,5.169-14.767,10.347-11.814c5.162,2.955,28.796,10.337,29.532,5.174c0.742-5.174-11.815-53.917-9.602-61.302
		c2.22-7.385,16.252-11.814,21.42-1.474c5.169,10.337,16.987,73.849,19.936,96.008c2.956,22.156,5.179,40.614,11.819,40.614
		c6.647,0,23.633-11.073,25.111-31.019c1.481-19.936-0.736-48.002-1.478-54.645c-0.736-6.647,6.65-14.032,11.819,0.736
		c5.169,14.767,11.076,63.515,0,79.76c-11.076,16.244-28.805,26.586-34.717,31.755c-5.897,5.169-7.375,11.079-3.684,12.557
		c3.684,1.481,45.047-14.77,50.955-33.236c5.911-18.458,2.955-33.231,1.478-41.352c-1.478-8.124,5.174-15.516,9.598-11.819
		c4.433,3.695,7.388,25.85,7.388,37.668c0,11.808-2.955,33.968-16.245,45.047c-13.296,11.076-50.961,31.755-58.346,39.882
		c-7.382,8.117-16.248,16.981-16.248,16.981s1.478,7.388,0.742,10.337c-0.742,2.955,8.86-8.86,14.029-10.337
		c5.172-1.472,2.958,14.773-0.742,17.723c-3.691,2.955-8.854,5.169-8.854,5.169s16.981,7.388,19.194,11.818
		c2.22,4.433,2.22,7.388,2.22,7.388s13.29,9.605,22.156,11.077c8.863,1.477,23.63,12.554,12.554,30.283
		c10.341,2.213,56.13-7.392,66.464-14.032c10.341-6.649,100.218-31.262,148.224-13.533c47.999,17.724,68.684,75.324,64.25,87.878
		c-4.427,12.554-3.474,42.338-20.461,68.185c-16.987,25.85-16.248,81.231-4.427,96.005c11.819,14.774,12.554,40.62,8.121,54.652
		c-4.436,14.031,5.911,122.594,8.124,126.285c2.213,3.694,0.736,11.818-1.478,14.774c-2.213,2.952-3.691,17.723-8.124,20.678
		c-4.43,2.959-32.496,8.857-31.755,1.481c0.736-7.392,11.815-20.685,11.815-20.685s-8.124-138.106-11.079-143.269
		c-2.949-5.169-50.213-59.824-57.604-65.735c-7.382-5.904-20.678-22.15-20.678-22.15s-3.691,22.892-0.736,30.277
		c2.956,7.383,25.85,49.484,22.15,59.079c-3.691,9.605-59.808,121.116-62.764,131.457c-2.958,10.341-3.7,14.032-8.869,16.245
		c-5.169,2.219-14.032,9.602-18.459,11.082c-4.433,1.478-28.805,0.736-28.063-4.43c0.736-5.175,18.459-19.201,18.459-19.201
		l9.605-15.515c0,0,8.121-10.332,9.599-13.29c1.478-2.955,29.538-83.451,29.538-92.311c0-8.869-36.181-58.346-40.614-70.161
		c-11.077,12.554-112.257,17.723-118.903,14.773c2.213,10.331-15.51,79.751-15.51,82.709c0,2.955,0.736,21.42-3.691,28.061
		c-4.433,6.649-6.65,48.748-8.863,58.346c-2.219,9.601,2.953,37.665,3.691,40.614c0.739,2.955,7.392,15.509,7.392,19.943
		c0,4.433-17.729,11.082-27.335,8.863c-9.595-2.213-12.55-24.372-11.072-26.585c1.477-2.22,4.433-12.554,4.433-12.554
		s1.471-76.808,1.471-84.19c0-7.385-4.427-34.712-0.736-41.359c3.691-6.647,0-68.684,0-68.684l-22.892-8.86
		c0,0-8.87,78.279-11.082,85.668c-2.213,7.385,2.213,23.631-1.477,28.799c-3.685,5.172,5.169,92.32,4.433,96.747
		c-0.742,4.433,1.478,14.774-1.477,18.464c-2.955,3.691-19.201,8.124-28.063,1.478c-8.86-6.647-4.434-14.774-4.434-14.774
		s9.606-14.767,9.606-22.156c0-7.382-5.914-76.063-6.65-78.282c-0.742-2.213-3.691-24.369-2.956-27.318
		c0.742-2.958-15.502-98.967-17.722-104.874c-2.213-5.911-19.372-72.077-17.444-102.312c4.799-75.158,25.571-115.548,36.651-128.102
		c11.077-12.561,5.908-19.201,5.908-19.201s-15.516-3.697-23.637-11.082c-8.124-7.382-10.337-30.277-10.337-30.277
		s12.557-5.169,21.414,0c8.866,5.172,17.729,15.509,18.465,11.076c0.742-4.433-19.943-23.627-28.799-25.85
		c-8.866-2.213-77.551-25.84-97.486-47.26c-19.946-21.42-42.831-55.392-50.219-59.082c-7.385-3.691-19.939-12.554-19.939-12.554
		s-14.774,8.127-22.898,6.649c-8.12-1.477-11.819-15.509,2.955-22.898c14.767-7.385,15.509-9.598,14.767-17.726
		c-0.735-8.124-2.948-31.753,5.176-35.445c8.12-3.694,14.767,0,14.032,11.077c-0.743,11.076,12.554,43.572,19.936,40.617
		c7.392-2.952,18.465-43.573,19.943-50.958c1.481-7.385,11.076-16.249,16.248-11.815c5.169,4.43,11.079,11.815,4.433,22.891
		c-6.65,11.083-7.392,32.497-2.955,39.144c4.426,6.649,3.691,33.974,5.169,39.881c1.477,5.911,1.477,28.802,19.2,38.401
		c17.729,9.601,72.375,36.929,72.375,34.71c0-2.213-14.767-25.109-19.943-40.615c-5.162-15.509-10.337-39.882-3.69-47.264
		c6.646-7.392,11.079,0.736,11.818,13.29c0.742,12.55,5.169,35.452,16.987,50.961c11.815,15.503,14.029,22.891,19.936,28.06
		C231.029,218.566,241.369,214.13,241.369,214.13z"></path>
</g>
</svg>
