<!--?xml version="1.0" encoding="utf-8"?-->
<!-- Generator: Adobe Illustrator 22.1.0, SVG Export Plug-In . SVG Version: 6.00 Build 0)  -->
<svg version="1.1" id="_x31_1" xmlns="http://www.w3.org/2000/svg" xmlns:xlink="http://www.w3.org/1999/xlink" x="0px" y="0px" viewBox="0 0 800 702.649" style="enable-background:new 0 0 800 702.649;" xml:space="preserve">
<style type="text/css">
	.st0{fill:#040000;}
</style>
<g>
	<path class="st0" d="M560.061,23.432c0,0,36.583-16.808,43.529-20.771c6.897-3.958,3.932,5.941,0.969,12.851
		c-2.965,6.922-21.759,36.594-21.759,40.563c0,3.945,16.82,35.591,8.907,67.235c-7.915,31.646-19.787,34.617-8.907,43.511
		c10.879,8.914,58.34,22.757,71.204,21.77c12.864-0.991,75.162,16.81,89.998,17.797c14.836,0.986,28.669-1.979,24.723,9.886
		c0,0,24.722,1.979,27.688,13.856c2.977,11.865,2.977,26.696-10.878,25.703c0,0-14.813,4.949-25.716,0.993
		c-10.879-3.964-81.091-0.993-96.896,0.98c-15.828,1.978-133.514,10.885-152.308,9.893c-18.793-0.981-85.06,1.972-83.076,9.892
		c1.972,7.909,21.747,37.575,28.692,41.531c6.911,3.964,73.178,12.864,92.951,6.923c19.775-5.93,55.377-21.759,63.291-8.901
		c20.778,0,27.689,11.866,25.727,21.759c8.895,6.916,3.945,20.771,0,22.751c0.98,7.908-23.742,23.729-53.416,18.786
		c-29.66-4.949-89.986,0-95.939,3.964c-5.918,3.944,89.018,18.78,102.863,16.808c13.831-1.978,56.379,2.959,62.297,10.867
		c19.786,1.978,25.715,26.703,18.806,35.608c2.953,9.893-12.876,10.879-17.826,13.844c-8.895,8.9-22.726,9.886-29.661,7.913
		c-6.909-1.972-47.461-1.972-54.383-0.992c-6.923,0.992-170.109,15.829-213.615-9.886c-43.505-25.71-68.24-36.595-75.174-37.576
		c-6.909-0.992-1.949,50.427,36.607,79.107c28.632,21.292,106.795,101.869,172.081,94.948c65.262-6.934,91.958,0,94.936,48.455
		c2.965,48.46-77.147,83.071-199.77,32.626c-122.636-50.427-198.203-169.1-236.364-194.815
		C107.118,452.639-11.561,419.003,3.275,304.288c20.778-78.126,50.44-82.078,50.44-82.078s31.656-84.063,126.592-112.736
		c94.936-28.675,227.458-25.721,227.458-25.721l7.902-24.724c0,0-25.715-42.518-14.836-42.518c10.891,0,22.762,12.858,22.762,12.858
		s53.392-2.965,74.146-4.944C518.528,22.435,560.061,23.432,560.061,23.432z"></path>
</g>
</svg>
