<!--?xml version="1.0" encoding="utf-8"?-->
<!-- Generator: Adobe Illustrator 22.1.0, SVG Export Plug-In . SVG Version: 6.00 Build 0)  -->
<svg version="1.1" id="_x36_" xmlns="http://www.w3.org/2000/svg" xmlns:xlink="http://www.w3.org/1999/xlink" x="0px" y="0px" viewBox="0 0 800 461.771" style="enable-background:new 0 0 800 461.771;" xml:space="preserve">
<style type="text/css">
	.st0{fill:#040000;}
</style>
<g>
	<path class="st0" d="M797.89,353.798c-0.723-6.322,1.035-24.476-7.591-32.453c-8.618-7.983-17.186-37.776-19.616-47.753
		c-2.431-9.987-49.635-30.196-63.762-41.387c-14.12-11.192-30.056-15.762-26.337-39.277c3.688-23.507-14.507-70.149-14.507-70.149
		s29.884,14.52,46.88,6.134c16.976-8.359,23.519-29.634,17.712-35.375c-5.781-5.746-14.951,26.09-35.107,18.144
		c-20.156-7.926-28.406-35.196-47.007-40.737c0,0-28.482-46.725-110.744-37.241C455.55,43.199,297.882,88.337,231.467,52.27
		c-21.476-15.123-37.577-36.907-71.619-48.248C125.826-7.328,64.419,17.067,55.229,41.155c-9.165,24.068-19.16,51.888-29.498,57.45
		c-10.338,5.55-19.731,12.635-19.731,12.635s-8.777,16.349-0.33,19.487c0.59,9.259,11.132,20.689,27.144,18.972
		c13.048,11.979,32.106,8.323,59.567-3.935c27.454-12.267,65.868-9.074,72.254-2.478c6.53,12.064,37.995,75.286,38.997,84.152
		c1.035,8.869-38.255,35.21-51.976,49.603c-13.734,14.426-51.342,32.861-62.315,37.973c-10.941,5.112-29.631,9.831-42.444,10.018
		c-12.794,0.19-14.254,20.902-5.09,22.403c-3.662,1.697,7.47,9.396,18.874,8.075c-3.079,6.781,11.144,7.698,15.466,0.771
		c4.353-6.899,19.096-12.445,37.342-20.959c18.252-8.533,57.79-10.528,80.516-24.697c22.732-14.155,71.257-49.26,76.08-40.832
		c4.823,8.415,5.699,49.359,0.102,56.413c-5.597,7.075-8.276,39.439-10.306,55.07c-2.07,15.621-8.435,38.151-17.979,44.396
		c-9.539,6.222-7.699,11.128-11.043,15.361c-5.058,0.6-7.99,8.624-3.459,14.517c-0.102,10.262,25.899,2.158,35.869-0.292
		c9.982-2.431,15.58-9.498,15.974-17.233c0.381-7.746,16.799-54.519,19.698-62.56c2.933-8.028,27.848-36.545,27.524-50.621
		c-0.355-14.067,22.181-74.373,22.181-74.373c35.502,7.445,92.498-20.946,122.383-39.769c29.891-18.849,61.147-14.752,61.147-14.752
		s-2.919,41.369,5.141,55.82c8.091,14.476,70.45,54.718,74.671,58.079c4.239,3.36,2.551,33.061,0.501,48.683
		c-2.044,15.621-18.938,47.073-24.98,50.332c-6.028,3.265-5.591,7.045-6.27,12.268c-4.626,4.372-2.494,11.829,5.103,10.948
		c11.436,10.233,31.636-3.65,37.24-10.704c5.585-7.063,3.986-20.978,9.253-42.114c5.255-21.127,16.64-55.781,22.93-68.045
		c6.282-12.271-16.793-45.519-16.793-45.519s7.146-4.671,27.302,3.259c20.156,7.943,69.988,17.576,77.101,34.712
		c7.114,17.132,17.922,44.091,16.418,53.265c-1.516,9.141,2.025,17.7,9.184,13.048c0,0,6.524,12.051,16.062,5.829
		C795.758,379.707,798.632,360.147,797.89,353.798z"></path>
</g>
</svg>
