<?xml version="1.0" encoding="utf-8"?>
<!-- Generator: Adobe Illustrator 28.0.0, SVG Export Plug-In . SVG Version: 6.00 Build 0)  -->
<svg version="1.1" id="_x39_" xmlns="http://www.w3.org/2000/svg" xmlns:xlink="http://www.w3.org/1999/xlink" x="0px" y="0px"
	 viewBox="0 0 800 763.4" style="enable-background:new 0 0 800 763.4;" xml:space="preserve">
<style type="text/css">
	.st0{fill:#008877;}
</style>
<g>
	<path class="st0" d="M621.3,761.5c-39.2,0-114.3-12.9-177-99c-26-35.7-39.3-69.5-45.2-99.4c-5.9,29.9-19.2,63.7-45.2,99.4
		c-60.6,83.5-133.6,97.9-171.7,99c-0.1,0-0.2,0-0.3,0c-2.6,0-5.1-1.1-6.7-3.2c-1.7-2.1-2.3-4.9-1.7-7.5l7.6-31.8l-29.8,19.5
		c-1.4,0.9-3.1,1.4-4.8,1.4c-0.9,0-1.9-0.2-2.8-0.5c-2.6-0.9-4.5-2.9-5.4-5.5c-12.3-37.4-23.6-113,39.3-199.5
		c26.1-36,54.4-59.1,81.4-74c-8.7,1.1-17.9,1.7-27.7,1.7c-26.3,0-53.8-4.6-81.7-13.7C51.5,416.5,15.3,351.6,2.5,315.7
		c-0.9-2.6-0.6-5.4,0.9-7.6c1.5-2.3,3.9-3.7,6.6-3.9l32.6-2.6l-27.7-22.3c-2.1-1.7-3.3-4.3-3.2-7c0.1-2.7,1.4-5.2,3.5-6.8
		c19.3-14.1,60.7-37.9,120.2-37.9c26.3,0,53.8,4.6,81.6,13.6c42,13.6,72.6,33.1,95,53.9c-12.8-27.7-21.9-62.8-21.9-107
		c0-103.2,50.6-157.7,80.8-181c1.5-1.2,3.4-1.8,5.3-1.8c0.7,0,1.5,0.1,2.2,0.3c2.6,0.7,4.8,2.5,5.8,5l12.6,30.2l12.6-33.3
		c1-2.5,3-4.5,5.6-5.2c0.8-0.2,1.6-0.3,2.5-0.3c1.8,0,3.6,0.6,5.1,1.6c31.9,23,85.4,77.5,85.4,184.5c0,44.1-9.1,79.3-21.9,107
		c22.3-20.7,53-40.2,95-53.9c27.9-9,55.4-13.6,81.6-13.6c53.6,0,92.4,18.8,115.5,34.5c2.2,1.5,3.6,4,3.8,6.7c0.2,2.7-1,5.3-3,7
		L754.2,297l35.6,1.7c2.7,0.1,5.1,1.5,6.7,3.7c1.5,2.2,1.9,5,1.1,7.6c-12,37.5-47.3,105.2-149.1,138.3c-27.9,9-55.3,13.7-81.6,13.7
		c-9.7,0-18.9-0.6-27.7-1.7c27,14.9,55.3,38,81.4,74c60.7,83.6,51.8,157.4,41.1,193.9c-0.7,2.6-2.7,4.7-5.2,5.7
		c-1,0.4-2.1,0.6-3.1,0.6c-1.5,0-3.1-0.5-4.5-1.3l-27.9-17l9.3,34.3c0.7,2.6-0.2,5.4-1.8,7.6C626.8,760.2,624,761.5,621.3,761.5
		L621.3,761.5z M354.5,435.3c14.6,0,23.6,1.8,24,1.9c2.4,0.5,4.5,2.1,5.8,4.2c0.9,1.6,9.6,17.3,14.8,42.9
		c5.2-25.6,13.9-41.4,14.8-42.9c1.2-2.2,3.3-3.7,5.8-4.2c0.4-0.1,9.4-1.9,24-1.9c6.5,0,14,0.3,22.3,1.3
		c-23.5-13.1-36.1-26.6-37.1-27.7c-1.7-1.8-2.5-4.3-2.2-6.8c0.2-1.8,2.4-19.7,13.2-43.4c-19.3,17.6-35.6,25.3-37.3,26
		c-1.1,0.5-2.3,0.8-3.6,0.8c-1.2,0-2.4-0.3-3.5-0.8c-1.7-0.7-18-8.4-37.3-26.1c10.9,23.8,13,41.6,13.2,43.5c0.2,2.5-0.5,4.9-2.2,6.8
		c-1,1.1-13.5,14.6-37.1,27.7C340.5,435.6,348,435.3,354.5,435.3L354.5,435.3z"/>
</g>
</svg>
