<!--?xml version="1.0" encoding="utf-8"?-->
<!-- Generator: Adobe Illustrator 22.1.0, SVG Export Plug-In . SVG Version: 6.00 Build 0)  -->
<svg version="1.1" id="_x39_" xmlns="http://www.w3.org/2000/svg" xmlns:xlink="http://www.w3.org/1999/xlink" x="0px" y="0px" viewBox="0 0 800 763.399" style="enable-background:new 0 0 800 763.399;" xml:space="preserve">
<style type="text/css">
	.st0{fill:#FFFFFF;}
</style>
<g>
	<path class="st0" d="M621.261,761.49c-39.173,0-114.319-12.869-176.96-99.03c-25.956-35.708-39.291-69.54-45.192-99.424
		c-5.884,29.884-19.218,63.716-45.184,99.424c-60.609,83.469-133.603,97.879-171.718,98.978c-0.092,0-0.186,0-0.279,0
		c-2.59,0-5.054-1.134-6.705-3.166c-1.709-2.099-2.337-4.875-1.709-7.5l7.568-31.8l-29.784,19.456
		c-1.439,0.949-3.09,1.404-4.775,1.404c-0.94,0-1.897-0.151-2.835-0.456c-2.557-0.898-4.522-2.93-5.359-5.486
		c-12.311-37.362-23.562-112.997,39.332-199.547c26.11-35.981,54.438-59.144,81.395-73.994c-8.722,1.11-17.941,1.735-27.668,1.735
		c-26.304,0-53.795-4.631-81.656-13.655C51.499,416.512,15.322,351.551,2.505,315.714c-0.898-2.557-0.593-5.359,0.872-7.636
		c1.463-2.279,3.903-3.709,6.611-3.929l32.569-2.641l-27.744-22.316c-2.082-1.686-3.266-4.276-3.199-6.951
		c0.059-2.71,1.362-5.207,3.547-6.833c19.318-14.147,60.651-37.885,120.234-37.885c26.304,0,53.76,4.605,81.648,13.647
		c41.984,13.647,72.648,33.128,94.999,53.879c-12.817-27.668-21.885-62.818-21.885-106.986c0-103.219,50.585-157.733,80.75-181.005
		c1.532-1.187,3.395-1.812,5.309-1.812c0.746,0,1.49,0.101,2.209,0.288c2.617,0.685,4.767,2.547,5.8,5.045l12.555,30.199
		l12.648-33.281c0.975-2.531,3.022-4.462,5.612-5.24c0.813-0.246,1.618-0.347,2.464-0.347c1.804,0,3.583,0.567,5.115,1.625
		c31.908,23.003,85.449,77.533,85.449,184.529c0,44.125-9.068,79.319-21.876,106.96c22.34-20.725,53.014-40.205,94.989-53.852
		c27.862-9.042,55.353-13.647,81.622-13.647c53.634,0,92.408,18.752,115.47,34.49c2.209,1.532,3.607,3.988,3.766,6.706
		c0.153,2.675-0.964,5.29-3.022,7.043l-24.839,21.283l35.591,1.744c2.675,0.129,5.139,1.5,6.706,3.709
		c1.524,2.244,1.921,5.021,1.117,7.612c-11.97,37.453-47.274,105.234-149.097,138.32c-27.896,9.025-55.343,13.655-81.648,13.655
		c-9.727,0-18.948-0.625-27.676-1.735c26.957,14.851,55.284,38.013,81.402,73.994c60.711,83.619,51.796,157.376,41.07,193.892
		c-0.746,2.607-2.676,4.69-5.199,5.671c-0.998,0.391-2.058,0.611-3.124,0.611c-1.548,0-3.14-0.458-4.511-1.287l-27.896-17.001
		l9.321,34.322c0.685,2.642-0.153,5.418-1.77,7.568C626.814,760.237,623.969,761.49,621.261,761.49L621.261,761.49z
		 M354.544,435.307c14.596,0,23.595,1.82,23.968,1.879c2.438,0.541,4.52,2.065,5.774,4.216c0.898,1.583,9.6,17.33,14.824,42.949
		c5.24-25.62,13.935-41.367,14.842-42.949c1.243-2.151,3.325-3.674,5.765-4.216c0.373-0.059,9.38-1.879,23.968-1.879
		c6.511,0,13.994,0.329,22.283,1.345c-23.528-13.122-36.057-26.625-37.058-27.735c-1.684-1.821-2.462-4.284-2.217-6.757
		c0.22-1.836,2.405-19.657,13.25-43.438c-19.294,17.635-35.593,25.271-37.277,26.017c-1.118,0.533-2.337,0.787-3.556,0.787
		c-1.21,0-2.429-0.255-3.547-0.787c-1.676-0.746-17.982-8.381-37.276-26.051c10.854,23.816,13.03,41.637,13.25,43.473
		c0.245,2.473-0.534,4.936-2.211,6.757c-0.998,1.11-13.529,14.613-37.056,27.735C340.55,435.636,348.042,435.307,354.544,435.307
		L354.544,435.307z"></path>
</g>
</svg>