<!--?xml version="1.0" encoding="utf-8"?-->
<!-- Generator: Adobe Illustrator 22.1.0, SVG Export Plug-In . SVG Version: 6.00 Build 0)  -->
<svg version="1.1" id="_x36_" xmlns="http://www.w3.org/2000/svg" xmlns:xlink="http://www.w3.org/1999/xlink" x="0px" y="0px" viewBox="0 0 800 708.112" style="enable-background:new 0 0 800 708.112;" xml:space="preserve">
<style type="text/css">
	.st0{fill:#040000;}
</style>
<g>
	<path class="st0" d="M520.518,620.422l-10.708,35.669c0,0,104.66,54.716,180.762,49.958c76.127-4.754,98.934-80.882,98.934-80.882
		c3.502-2.281,6.514-4.771,7.696-7.14c3.563-7.135-4.745-117.732-26.161-197.414c-21.406-79.682-67.372-180.766-104.241-205.732
		c-0.174-2.92-3.571-14.276-13.088-9.517c-48.409-39.889-24.577-110.518-41.615-140.338C606.1,54.54,569.276-8.711,509.066,3.275
		c-22.002-0.653-47.314,6.478-74.832,27.006c-14.087,10.493-52.4,39.617-53.976,95.157c-1.681,59.107,42.918,62.075,42.918,62.075
		s23.351,12.358,17.169,30.901c-4.763,14.271,3.581,16.653,14.271,9.513c7.714,5.485,1.26,11.921,12.284,11.137
		c-1.418,5.678,2.557,11.123,6.821,9.701c4.255-1.423,9.735,14.849,22.518,14.849c12.783,0,24.988-33.305,43.085-14.617
		c5.56,5.727,10.55,15.72,14.131,24.269c-4.518,3.406-8.606,6.974-9.569,9.391c-2.373,5.948,14.28,28.538,14.28,28.538
		s-4.832,31.12-7.652,55.522c-17.537,35.551-32.789,74.117-32.789,74.117l-48.96-18.906c-7.713-11.041-32.998-43.706-61.97-44.11
		c-4.272-6.636-9.98-11.96-15.137-13.097c-10.699-2.381-22.597-19.034-27.351-26.17c-1.305-1.948-2.785-2.267-4.15-1.568
		l-52.641-69.775c0,0-29.724-16.652-47.568,4.746l63.752,63.165c-0.193,1.607-0.193,3.507,0.174,5.814
		c0,0-2.381,15.462,3.555,24.978c1.007,5.971,0.342,13.61,4.29,20.82c-1.497,1.252-2.933,2.614-4.29,4.146
		c-26.157,29.737-153.405,199.809-184.334,220.016c-30.923,20.221-86.816,32.114-102.27,38.064
		c-15.462,5.949-17.852,8.325-28.547,8.325c-10.703,0-14.275,15.462-4.758,21.398c9.517,5.963,28.547,10.717,33.305,10.717
		c4.745,0,38.051-1.199,53.517,2.381c14.577,3.358,70.423,8.829,87.676-2.539c15.391,4.229,33.772,5.678,46.56,3.853
		c24.982-3.573,55.185,22.838,93.239-8.869c19.761-16.469,9.508-52.322,9.508-52.322s14.814-21.083,35.888-50.583l21.293-34.632
		C409.903,559.77,520.518,620.422,520.518,620.422z M361.925,362.338l-2.172-1.532l1.173-0.206
		C361.907,362.329,361.925,362.338,361.925,362.338z M200.104,652.12c-2.845,0-5.52,0-8.081,0c-0.565-4.746-1.349-7.924-1.349-7.924
		s63.437-47.146,103.693-79.585c-9.416,23.936-15.366,40.323-15.366,40.323S239.359,652.12,200.104,652.12z"></path>
</g>
</svg>
