<!--?xml version="1.0" encoding="utf-8"?-->
<!-- Generator: Adobe Illustrator 22.1.0, SVG Export Plug-In . SVG Version: 6.00 Build 0)  -->
<svg version="1.1" id="_x37_" xmlns="http://www.w3.org/2000/svg" xmlns:xlink="http://www.w3.org/1999/xlink" x="0px" y="0px" viewBox="0 0 375.275 800" style="width: 235px;" xml:space="preserve">
<style type="text/css">
	.st0{fill:#040000;}
</style>
<g>
	<path class="st0" d="M12.772,722.458c7.514-0.16,23.284,5.271,29.038,4.509c5.758-0.754,12.937-3.389,14.037-7.708
		c1.093-4.334,32.009-23.489,40.5-28.79c8.493-5.309-1.138-14.905,2.217-21.204c3.34-6.292,46.841-88.168,44.933-96.28
		c-1.908-8.119,9.624-47.276,12.53-56.864c2.136-7.03,7.083-46.796,10.526-67.977c-6.939-7.403-11.596-18.333-10.938-34.869
		c0.095-2.521,0.214-5.4,0.339-8.568c-12.422-2.689-5.366-14.875-5.366-14.875s-4.319,3.245-6.478,0
		c-2.159-3.237,3.246-8.637,6.478-19.437c1.759-5.834,4.761-11.303,7.67-15.492c3.039-55.833,8.778-114.665,19.742-134.282
		c15.747-28.184,38.973-72.131,38.143-77.109c-0.83-4.966-0.83-11.604-0.83-11.604s-13.264,5.807-18.245,0
		c0,0-0.83-9.951-3.321-10.781c-2.484-0.823-2.479-5.796-2.479-5.796l-3.317-4.977c0,0-0.83-6.63-5.807-8.294
		c-5.804,1.664-8.283-6.63-5.804-9.114c2.483-2.49,4.151-12.441,4.151-12.441L178,58.12c0,0-8.291-19.898,4.143-29.849
		c6.63-17.407,19.067-29.03,43.109-25.702c24.048,3.317,41.452,9.947,43.947,18.238c2.487,8.291,11.607,32.339,9.951,51.407
		c-1.657,19.064-7.464,20.72-7.464,20.72s-5.801,4.151-3.321,7.465c2.49,3.321,2.49,3.321,2.49,3.321l4.974-2.491l4.977,6.63
		l4.974-0.826l4.973,9.951c0,0,30.679,33.154,45.6,57.203c14.921,24.049,0.834,120.527,0,130.466
		c-0.83,9.963-4.151,24.88-4.151,29.845c0,4.989,8.298,87.064,4.981,107.796c-3.321,8.279-19.894,13.26-19.894,13.26
		s-3.324,40.626-3.324,47.26c0,6.633,7.46,20.724,5.803,26.528c-1.652,5.796,17.415,50.573,19.067,58.03
		c1.665,7.464,19.072,97.841,21.563,106.965c2.483,9.109,9.947,31.501,12.434,34.815c2.491,3.313,1.66,9.947-0.83,12.437
		c-2.487,2.484,8.283,30.679-5.804,44.769c-14.094,14.098-40.623,1.653-46.43,0.823c-5.803-0.823-37.309,11.622-53.064,10.777
		c-15.747-0.829-25.687-3.305-23.208-9.947c2.484-6.633,4.151-10.777,15.754-14.09c11.603-3.313,33.988-24.037,37.302-28.189
		c3.317-4.143-1.66-17.411,0-23.215c1.66-5.796,2.487-14.921,2.487-14.921l-54.713-159.184c0,0-3.705-6.519-8.854-15.933
		c-7.719,21.661-16.056,44.959-17.358,48.166c-2.525,6.192-40.222,81.442-44.891,90.43c-4.658,8.979-62.851,93.636-67.235,98.389
		c-4.387,4.768-10.468,3.063-10.468,3.063s-3.13,7.951-6.909,10.967c-3.781,3.009-15.777-5.446-16.923-7.799
		c-1.151-2.361-16.927-7.792-30.622-10.161c-13.694-2.376-34.391-19.696-38.984-29.117C-1.916,725.237,5.266,722.609,12.772,722.458
		z"></path>
</g>
</svg>
